<svg width="51" height="51" fill="none" xmlns="http://www.w3.org/2000/svg"><circle cx="25.5" cy="25.5" r="25.5" fill="#9FC8E1"/><path d="M27.173 33.24c-1.28 0-2.393-.267-3.34-.8-.933-.533-1.653-1.313-2.16-2.34-.507-1.027-.76-2.293-.76-3.8 0-1.613.3-2.98.9-4.1.613-1.12 1.453-1.973 2.52-2.56 1.08-.587 2.32-.88 3.72-.88.746 0 1.46.08 2.14.24.68.16 1.266.4 1.76.72l-1.2 2.38a3.416 3.416 0 00-1.24-.54 5.82 5.82 0 00-1.38-.16c-1.213 0-2.174.367-2.88 1.1-.707.733-1.06 1.82-1.06 3.26v.8c.013.293.053.587.12.88l-.9-.84c.253-.52.58-.953.98-1.3.4-.36.873-.627 1.42-.8a5.787 5.787 0 011.84-.28c.907 0 1.72.18 2.44.54a4.32 4.32 0 011.72 1.52c.44.653.66 1.42.66 2.3 0 .947-.24 1.773-.72 2.48-.467.693-1.1 1.233-1.9 1.62-.787.373-1.68.56-2.68.56zm-.18-2.42c.453 0 .853-.08 1.2-.24.36-.173.64-.42.84-.74.2-.32.3-.687.3-1.1 0-.64-.22-1.147-.66-1.52-.427-.387-1-.58-1.72-.58-.48 0-.9.093-1.26.28-.36.173-.647.42-.86.74-.2.307-.3.667-.3 1.08 0 .4.1.76.3 1.08.2.307.48.553.84.74.36.173.8.26 1.32.26z" fill="#fff"/></svg>