<svg width="24" height="23" fill="none" xmlns="http://www.w3.org/2000/svg"><path d="M0 10.298c.06-.417.103-.834.183-1.247.74-3.656 2.77-6.37 6.14-7.95 3.582-1.678 7.12-1.41 10.52.614.304.183.468.436.421.793-.075.553-.651.792-1.167.52-.633-.333-1.261-.694-1.931-.938C8.85.164 2.963 3.417 1.734 8.934a9.512 9.512 0 006.84 11.283c5.137 1.383 10.514-1.866 11.68-7.055a9.933 9.933 0 00.202-3.023c-.037-.455.263-.825.704-.858.407-.028.745.281.787.727.544 5.489-3.197 10.603-8.611 11.775-5.77 1.246-11.494-2.274-12.984-8.007-.155-.595-.211-1.214-.31-1.818-.01-.07-.028-.136-.042-.207v-1.453z" fill="#00A911"/><path d="M24 1.955c-.126.173-.234.37-.384.52a22223.048 22223.048 0 01-10.8 10.805c-.361.347-.783.347-1.14-.01A2287.826 2287.826 0 017.27 8.864c-.342-.342-.356-.797-.051-1.106.305-.31.764-.296 1.106.042 1.247 1.242 2.485 2.484 3.727 3.727.06.06.103.136.215.286.085-.136.122-.226.188-.291 3.384-3.39 6.769-6.774 10.153-10.158.23-.23.473-.375.811-.305.3.061.445.286.581.525v.37z" fill="#00A911"/></svg>