<svg width="75" height="75" fill="none" xmlns="http://www.w3.org/2000/svg"><path d="M75 6.021V56.56c-.05.18-.099.345-.115.526-.165 1.02-.51 1.974-1.135 2.813-1.316 1.76-3.11 2.55-5.248 2.566-2.451.017-4.919 0-7.37 0-6.383 0-12.783.017-19.166-.016-.641 0-.79.18-.773.79.05 1.2.05 2.418 0 3.619-.016.592.198.707.74.707 3.028-.016 6.054.017 9.098-.016 3.553-.033 6.087 2.599 6.4 5.577.098.888-.132 1.513-.971 1.875H18.59c-.84-.362-1.152-1.004-.955-1.875.165-.675.264-1.382.56-1.991 1.168-2.402 3.158-3.57 5.807-3.57 3.043-.016 6.103-.016 9.147 0 .493 0 .69-.115.674-.641-.033-1.201-.016-2.419-.016-3.62 0-.839 0-.839-.823-.839H7.98c-.84 0-1.678-.049-2.5-.098C3.29 62.2 1.101 60.44.46 58.336.28 57.758.165 57.15 0 56.574V6.038c.033-.149.099-.313.115-.461.28-2.073 1.283-3.702 3.142-4.672C4.097.445 5.083.28 6.005 0h62.958c.131.033.263.099.41.115 2.14.263 3.784 1.3 4.771 3.208.428.823.576 1.793.856 2.698zm-2.451 46.474V6.646c0-2.583-1.612-4.178-4.179-4.178H6.646c-2.6 0-4.195 1.595-4.195 4.178v45.191c0 .214.017.428.033.674 23.36-.016 46.655-.016 70.065-.016zM37.475 55.03H4.03c-.394 0-.79-.033-1.168.016-.148.016-.378.23-.394.362-.132 2.616 1.2 4.59 4.145 4.59h61.708c.477 0 .987-.066 1.448-.181 1.727-.46 2.697-1.958 2.747-4.014.016-.609-.132-.79-.773-.79-11.4.033-22.834.017-34.268.017zM20.3 72.516h34.432c-.049-.148-.065-.247-.115-.33-.773-1.595-2.105-2.17-3.8-2.17H24.2a7.3 7.3 0 00-1.036.065c-1.366.181-2.583 1.201-2.863 2.435zm18.393-5.018v-4.951H36.29v4.951h2.402z" fill="#595959"/><path d="M37.492 39.96h-2.336c-.889-.017-1.382-.412-1.366-1.283.017-.576-.345-.691-.724-.905-.394-.214-.592.016-.839.247-.592.542-1.283.575-1.858.016a109.717 109.717 0 01-3.39-3.389c-.608-.625-.592-1.283.05-1.958.247-.263.345-.46.164-.806-.18-.329-.23-.707-.773-.69-.921.032-1.365-.412-1.382-1.35a113.73 113.73 0 010-4.737c.017-.905.461-1.382 1.382-1.366.56.017.609-.345.79-.674.18-.346.066-.543-.181-.806-.625-.659-.642-1.3 0-1.942a156.68 156.68 0 013.307-3.306c.658-.642 1.316-.642 1.99 0 .23.213.428.361.74.164.313-.18.757-.197.724-.757-.066-1.085.691-1.447 1.563-1.447h4.31c.84 0 1.645.329 1.58 1.497-.033.576.444.592.773.707.18.066.51-.016.658-.164.757-.642 1.365-.658 2.056.016a298.85 298.85 0 013.225 3.224c.69.691.658 1.3.032 2.057a.882.882 0 00-.148.724c.083.362.181.707.74.707.955 0 1.383.46 1.399 1.398.017 1.563.033 3.11 0 4.672-.016.955-.444 1.382-1.415 1.366-.526-.017-.56.362-.724.658-.18.313-.115.543.132.806.675.707.675 1.349-.016 2.04-1.07 1.086-2.14 2.155-3.208 3.224-.658.642-1.366.642-2.04 0-.247-.23-.444-.329-.74-.148-.313.181-.724.198-.724.757-.017 1.036-.445 1.415-1.498 1.415-.773.05-1.513.033-2.253.033zm7.962-18.59c-.625-.625-1.2-1.2-1.793-1.81-.494.478-1.07.659-1.76.346-.724-.329-1.465-.609-2.205-.921-.493-.198-.855-.51-.855-1.07 0-.378-.214-.477-.56-.46a25.73 25.73 0 01-1.595 0c-.33-.017-.494.115-.51.444-.017.625-.428.938-.955 1.135-.46.165-.937.296-1.381.51-.856.444-1.695.938-2.419.082a172.72 172.72 0 01-1.842 1.777c.724.592.576 1.3.164 2.056-.23.428-.444.889-.575 1.35-.23.855-.626 1.48-1.662 1.398v2.566c1.02-.016 1.448.576 1.662 1.448.082.329.213.658.378.97.477.856.905 1.695.082 2.419.609.641 1.168 1.217 1.76 1.842.61-.707 1.333-.592 2.09-.164.362.197.724.378 1.118.493.905.247 1.711.543 1.629 1.711h2.616c-.099-1.07.575-1.415 1.398-1.661.411-.116.806-.28 1.184-.494.79-.428 1.563-.675 2.221.132l1.827-1.826c-.84-.675-.56-1.432-.132-2.221.197-.362.362-.74.477-1.135.247-.889.625-1.58 1.71-1.514v-2.566c-1.134.131-1.447-.642-1.71-1.497a6.453 6.453 0 00-.56-1.3c-.444-.74-.51-1.415.198-2.04z" fill="#00A911"/><path d="M37.31 5.034c3.209-.016 6.301.642 9.246 1.892.823.346 1.135 1.119.691 1.909a128.72 128.72 0 01-2.385 4.145c-.444.757-.97.905-1.843.576-1.595-.609-3.24-.97-4.951-1.036-3.307-.132-6.318.707-9.048 2.566-3.126 2.122-5.133 5.05-6.087 8.703-.264 1.02-.856 1.349-1.892 1.069-1.448-.378-2.896-.74-4.327-1.119-.937-.247-1.266-.822-1.02-1.744 1.645-6.25 5.297-11.005 10.924-14.18 3.306-1.86 6.91-2.748 10.693-2.78zM20.795 22.275c.115-.296.214-.526.313-.74 2.385-6.17 6.843-9.904 13.292-11.203 2.747-.56 5.495-.346 8.193.477.213.066.625.099.707-.017.428-.641.79-1.316 1.217-2.072-6.103-2.024-11.86-1.613-17.322 1.628-4.377 2.6-7.288 6.4-8.851 11.302.855.214 1.628.411 2.451.625zm39.169 5.182c-.017 3.191-.625 6.317-1.974 9.278-1.086 2.418-2.583 4.557-4.41 6.449-.657.69-1.414.707-2.056 0a204.483 204.483 0 01-3.092-3.488c-.56-.641-.527-1.3.082-1.974 1.48-1.629 2.6-3.471 3.274-5.56 1.02-3.208 1.003-6.4-.1-9.575-.624-1.776-.591-1.924 1.054-2.862 1.07-.609 2.122-1.234 3.191-1.843 1.07-.625 1.777-.329 2.254.823a23.258 23.258 0 011.662 6.317c.082.773.065 1.58.115 2.435zm-7.436 13.21c5.15-5.511 6.186-14.148 3.685-20.12-.51.296-1.004.625-1.546.856-.56.247-.642.56-.461 1.135 1.02 3.34.987 6.695-.017 10.035-.641 2.122-1.661 4.047-3.01 5.79-.115.149-.214.494-.132.61.461.575.97 1.102 1.48 1.694zm-13.803 5.625c0 .74.017 1.481 0 2.205-.016 1.036-.46 1.48-1.48 1.448-8.637-.264-15.102-4.212-19.478-11.631-.46-.79-.296-1.464.493-1.941a128.95 128.95 0 014.146-2.386c.724-.411 1.3-.197 1.826.56.609.888 1.168 1.842 1.859 2.665 2.22 2.648 5.034 4.326 8.44 4.968.937.18 1.908.247 2.862.345.921.099 1.316.51 1.332 1.431.017.395 0 .774 0 1.168v1.168zm-18.343-8.34c2.221 3.504 5.133 6.103 8.818 7.781 2.221 1.004 4.54 1.645 7.058 1.744v-1.546c0-1.053 0-1.053-1.037-1.152h-.066c-3.224-.411-6.086-1.662-8.62-3.685-1.431-1.135-2.632-2.5-3.652-4.03-.099-.132-.395-.28-.51-.23-.658.328-1.283.723-1.99 1.118zm-2.944-4.244c-2.089-.032-3.685-1.678-3.668-3.8.016-1.974 1.727-3.652 3.734-3.635 2.023.016 3.734 1.727 3.718 3.734 0 2.056-1.695 3.718-3.784 3.701zm.017-2.45c.707.016 1.316-.56 1.3-1.251 0-.642-.61-1.25-1.251-1.267-.69-.016-1.3.593-1.3 1.283.017.658.576 1.234 1.25 1.234zm33.823-13.787c-2.073.016-3.768-1.662-3.768-3.718 0-2.023 1.695-3.718 3.718-3.718 2.04 0 3.718 1.662 3.718 3.702a3.686 3.686 0 01-3.668 3.734zm-.033-2.468c.707 0 1.233-.526 1.25-1.233.016-.708-.576-1.316-1.267-1.3-.69.016-1.283.641-1.267 1.316a1.295 1.295 0 001.284 1.217zm-9.953 28.723c.016-2.04 1.71-3.734 3.718-3.701 2.023.033 3.718 1.744 3.701 3.75-.016 2.106-1.694 3.719-3.85 3.686-1.99-.017-3.586-1.695-3.57-3.735zm4.935.1a1.275 1.275 0 00-1.201-1.35c-.658-.016-1.267.543-1.283 1.218-.033.723.51 1.3 1.217 1.316a1.19 1.19 0 001.267-1.185zm-2.55-16.238c-.099 3.505-2.912 6.203-6.366 6.104-3.373-.099-6.087-2.945-6.005-6.268.082-3.553 2.895-6.136 6.235-6.103 3.471.016 6.218 2.911 6.136 6.267zm-6.185 3.685c2.072 0 3.816-1.743 3.783-3.8-.033-2.056-1.743-3.75-3.783-3.75s-3.751 1.694-3.784 3.75c-.033 2.04 1.71 3.8 3.784 3.8z" fill="#00A911"/></svg>