<svg width="70" height="75" fill="none" xmlns="http://www.w3.org/2000/svg"><path d="M55.681 23.209h7.182c3.583 0 6.327 2.711 6.343 6.294.016 6.246 0 12.476 0 18.722v5.02c0 3.566-2.744 6.31-6.31 6.31h-9.733v-6.392c0-.29-.064-.387-.37-.387-11.686.016-23.37 0-35.072 0-.468 0-.936 0-1.404-.016-.242 0-.307.129-.307.323 0 .29.033.58.033.871v5.407c0 .048 0 .08-.017.161-.112 0-.226.017-.322.017H6.327c-3.196 0-5.762-2.18-6.262-5.343A5.544 5.544 0 010 53.292V29.535c0-2.679 1.517-4.955 3.906-5.907a6.487 6.487 0 012.34-.452h7.247V13.51h3.89V0h34.392v13.493h3.874c.032 3.276.032 6.472.032 9.716zm-.968 34.764c.064.016.097.032.129.032 1.598.016 3.18.032 4.777.032 1.081 0 2.163-.016 3.244-.032 2.744-.016 4.794-2.05 4.794-4.81V35.377H1.566c-.017.114-.017.21-.017.307 0 5.891-.016 11.798 0 17.69 0 2.372 1.824 4.405 4.197 4.567 1.517.113 3.05.064 4.583.08 1.275 0 2.534-.016 3.81-.032h.37v-6.746h40.204v6.73zm-35.765-34.78h31.294V1.597H18.948v21.594zm48.709 10.651V29.6c0-2.792-2.034-4.842-4.826-4.842H6.198c-2.357 0-4.439 1.84-4.6 4.18-.113 1.582-.032 3.18-.049 4.777 0 .033.017.065.049.13h66.059zM17.382 15.09c-.694 0-1.34.017-2.001 0-.258 0-.339.081-.339.34.016 2.485 0 4.954 0 7.44 0 .113.016.226.016.322h2.308c.016-2.711.016-5.374.016-8.102zm36.766 8.102v-7.778c0-.258-.08-.355-.339-.339-.307.016-.63 0-.936 0h-1.05v8.102c.776.016 1.518.016 2.325.016z" fill="#595959"/><path d="M17.415 75V54.164h34.36V75h-34.36zm1.549-1.533h31.262V55.714H18.964v17.753z" fill="#00A911"/><path d="M60.265 32.247a2.962 2.962 0 01-2.954-2.938c-.016-1.63 1.307-2.953 2.954-2.97 1.614 0 2.953 1.308 2.953 2.938a2.958 2.958 0 01-2.953 2.97zm1.775-2.921c0-.985-.79-1.792-1.775-1.808-.985-.016-1.792.79-1.808 1.775 0 .985.79 1.792 1.775 1.808 1.001 0 1.808-.807 1.808-1.775zm-6.569-.032c0 1.646-1.34 2.97-2.953 2.953a2.951 2.951 0 01-2.937-2.953 2.942 2.942 0 012.985-2.954c1.598.016 2.905 1.356 2.905 2.954zm-1.162 0c0-.985-.806-1.776-1.791-1.776-.968 0-1.775.823-1.775 1.808.016.968.807 1.775 1.775 1.775 1-.016 1.791-.807 1.791-1.807zm-6.569-.001c0 1.63-1.307 2.954-2.92 2.954-1.695 0-2.938-1.324-2.954-2.921a2.924 2.924 0 012.921-2.986 2.945 2.945 0 012.954 2.953zm-2.872-1.775c-1.05-.016-1.872.742-1.872 1.727 0 1.081.726 1.84 1.823 1.856.985.016 1.792-.823 1.776-1.791-.017-.953-.807-1.824-1.727-1.792z" fill="#595959"/><path d="M34.57 60.523H22.984c-.436-.032-.759-.339-.759-.759s.307-.742.742-.79h23.014c.55 0 .823.161.953.532.145.468-.146.953-.646 1-.13.017-.242.017-.371.017H34.57zm.065 8.119h11.476c.322 0 .597.096.758.387a.766.766 0 01-.016.807c-.145.242-.388.355-.646.371-.193.016-.403 0-.597 0H23.192c-.37 0-.677-.064-.871-.42a.77.77 0 01.613-1.13c.13-.015.242 0 .371 0 3.777-.015 7.554-.015 11.33-.015zm-.032-3.293H23.321c-.129 0-.274 0-.403-.017a.744.744 0 01-.678-.694.752.752 0 01.565-.79c.162-.033.355-.033.533-.033h22.724c.694 0 1.098.485.872 1.05a.712.712 0 01-.63.484c-.129.016-.274.016-.403.016-3.777-.016-7.538-.016-11.298-.016z" fill="#00A911"/></svg>