<svg width="75" height="75" fill="none" xmlns="http://www.w3.org/2000/svg"><path d="M34.228.017c1.105.083 2.21.167 3.314.284 6.611.62 13.038 1.925 18.846 5.356 1.205.703 2.31 1.624 3.33 2.561 1.859 1.724 2.796 3.866 2.78 6.477-.051 7.465-.017 14.947-.034 22.412 0 1.607 0 3.23-.017 4.837-.017 1.171-.586 1.824-1.573 1.824-.87 0-1.523-.753-1.54-1.807-.017-1.825 0-3.633-.017-5.457 0-.15-.017-.301-.017-.368-1.406.904-2.761 1.891-4.234 2.695-3.867 2.092-8.068 3.23-12.37 3.983a64.517 64.517 0 01-12.937.954c-6.126-.167-12.151-.937-17.96-2.996-3.062-1.071-5.958-2.46-8.401-4.636-.05-.05-.117-.067-.251-.134-.017.251-.034.469-.034.67 0 2.811.017 5.64 0 8.452 0 1.071.318 2.008.954 2.845 1.239 1.657 2.862 2.862 4.703 3.716 1.841.853 3.766 1.556 5.658 2.293.686.268 1.121.686 1.154 1.44.034.669-.25 1.271-.887 1.456-.468.133-1.054.133-1.506-.017C9.825 55.769 6.595 54.58 3.18 51.65c-.017.201-.05.369-.05.536 0 2.695.05 5.406-.017 8.1-.05 1.725.603 3.08 1.774 4.252 1.473 1.49 3.23 2.578 5.139 3.381 1.506.636 3.046 1.155 4.569 1.724.72.268 1.088.77 1.088 1.473 0 .686-.352 1.255-1.004 1.456-.318.1-.703.134-1.005.05-3.598-1.138-7.096-2.494-10.042-4.97C1.757 66.095.452 64.203 0 61.76V13.222c.067-.284.15-.552.218-.836.552-2.16 1.924-3.766 3.581-5.155 2.812-2.327 6.11-3.7 9.54-4.77C17.257 1.238 21.29.535 25.39.25c.904-.066 1.791-.166 2.695-.25 2.042.017 4.084.017 6.143.017zm-3.113 3.096c-1.189.067-3.465.15-5.724.318-4.653.335-9.206 1.222-13.574 2.912-2.662 1.021-5.189 2.293-7.18 4.436-1.909 2.042-1.992 4.268-.202 6.393.419.503.904.954 1.423 1.373 2.611 2.092 5.657 3.314 8.82 4.251 3.967 1.189 8.035 1.825 12.169 2.059 4.184.251 8.352.2 12.502-.318 3.599-.452 7.147-1.155 10.562-2.444 2.661-.987 5.255-2.142 7.364-4.117 1.239-1.172 2.21-2.477 2.042-4.318-.134-1.457-1.004-2.51-2.008-3.448-2.143-2.009-4.754-3.23-7.482-4.201C44.12 4 38.195 3.264 31.115 3.113zm15.85 35.55c1.054-.334 2.126-.636 3.163-1.02 2.595-.955 5.055-2.143 7.114-4.034 1.004-.921 1.975-1.959 2.008-3.365.1-3.263.034-6.527.034-9.908-.352.284-.62.519-.904.753-2.896 2.293-6.243 3.666-9.741 4.703-4.653 1.39-9.423 2.092-14.244 2.276-5.49.218-10.963-.083-16.369-1.205-3.598-.753-7.13-1.757-10.394-3.514-1.556-.837-3.012-1.875-4.519-2.812v.585c0 2.545.084 5.089-.033 7.633-.1 2.176.803 3.766 2.36 5.088 2.594 2.243 5.707 3.515 8.92 4.502 5.59 1.707 11.349 2.343 17.173 2.31 3.833-.017 7.65-.301 11.415-1.071.803-.168 1.623-.302 2.327-.435" fill="#595959"/><path d="M22.63 75c-.67-.318-1.373-.57-1.976-.971-1.272-.854-1.891-2.142-1.908-3.649-.017-2.243.034-4.485.05-6.745.017-1.02.486-1.858 1.155-2.711-1.322-1.39-1.255-3.147-1.222-4.904.034-1.674-.05-3.365.084-5.038.15-2.226 2.126-4.05 4.369-4.068 4.535-.033 9.088-.016 13.624-.016H55.2c5.088 0 10.176 0 15.264.016 2.126 0 3.984 1.574 4.402 3.65.017.1.084.2.134.3v7.633a632.18 632.18 0 01-1.037 2.46c.334.753.686 1.523 1.037 2.31v7.632c-.25.988-.585 1.891-1.339 2.661-.77.804-1.724 1.172-2.761 1.423C54.798 75 38.714 75 22.63 75zm24.201-3.13H69.93c1.406 0 1.908-.519 1.908-1.942v-5.523c0-1.339-.62-1.941-1.958-1.941H30.16c-2.109 0-4.218 0-6.327.016-1.389 0-1.958.57-1.958 1.942a310.504 310.504 0 00-.017 5.59c0 1.289.603 1.858 1.875 1.858H46.83zm.034-21.86v.018H23.7c-1.255 0-1.807.519-1.824 1.757-.034 1.958-.017 3.9 0 5.858.017 1.121.586 1.657 1.69 1.707h46.246c1.573 0 2.042-.452 2.042-2.008v-5.39c0-1.422-.553-1.958-1.975-1.958-7.683.017-15.349.017-23.014.017z" fill="#00A911"/><path d="M60.874 68.74c-2.042 0-4.084.017-6.126 0-1.322-.017-2.042-1.272-1.373-2.377.352-.569.92-.736 1.523-.736 3.515-.017 7.03 0 10.545 0 .552 0 1.088-.017 1.624 0 1.02.05 1.657.686 1.64 1.606-.017.904-.703 1.507-1.724 1.507h-6.11zm-34.346 0c-.853 0-1.556-.736-1.54-1.573.034-.82.787-1.556 1.607-1.54.837.017 1.524.737 1.507 1.59a1.55 1.55 0 01-1.574 1.523zM60.89 56.255h-6.058c-.837 0-1.423-.369-1.607-1.005-.201-.652-.117-1.305.468-1.723.318-.218.737-.385 1.122-.402 4.1-.017 8.218-.017 12.319 0 .803 0 1.355.435 1.556 1.088.184.62-.05 1.406-.636 1.724-.351.2-.82.284-1.222.284-1.991.05-3.966.034-5.941.034zm-32.788-1.558c-.017.887-.67 1.54-1.556 1.54-.921 0-1.59-.703-1.557-1.607.034-.82.736-1.473 1.573-1.456.904 0 1.54.636 1.54 1.523z" fill="#00A911"/></svg>