<svg width="64" height="74" fill="none" xmlns="http://www.w3.org/2000/svg"><path d="M13.844 53.761c3.483-3.284 6.917-6.535 10.4-9.82.299.316.564.598.913.962-1.526 1.444-3.036 2.87-4.529 4.297-1.825 1.725-3.65 3.466-5.49 5.158-.448.415-.498.78-.282 1.36 1.51 4.064-.763 8.576-4.894 9.77-4.213 1.228-8.476-1.293-9.454-5.606-.946-4.18 1.824-8.277 6.104-8.99 2.554-.415 4.744.348 6.585 2.14.182.215.382.447.647.73zm-1.178 4.512c0-2.67-2.173-4.877-4.827-4.893-2.67-.017-4.893 2.222-4.877 4.926a4.839 4.839 0 004.86 4.827c2.655.017 4.844-2.19 4.844-4.86zM43.287 43.26c.266-.397.465-.712.713-1.094 2.024 1.592 4.015 3.168 6.038 4.76 1.709-1.907 3.782-2.935 6.37-2.786 1.808.1 3.367.78 4.694 2.007 2.704 2.505 3.135 6.685 1.029 9.737-2.09 3.035-6.138 4.097-9.489 2.455-3.699-1.808-4.91-5.474-3.367-10.318a541.902 541.902 0 00-5.988-4.76zm12.69 13.188c2.654 0 4.876-2.19 4.893-4.827 0-2.62-2.223-4.86-4.86-4.877-2.654-.016-4.877 2.157-4.894 4.81-.016 2.737 2.124 4.894 4.86 4.894zM34.711 20.652v3.997c-.464-.05-.83-.083-1.277-.133v-3.898c-2.638-.364-4.645-1.609-5.938-3.914-.93-1.659-1.128-3.434-.73-5.292.63-2.903 3.433-6.12 8.078-5.789 3.483.25 6.436 3.202 6.734 7.017.232 3.035-1.559 7.1-6.867 8.012zm-.58-12.391c-2.688-.017-4.877 2.123-4.91 4.777-.034 2.687 2.173 4.91 4.876 4.926 2.654 0 4.86-2.19 4.877-4.843.033-2.654-2.173-4.86-4.843-4.86zm-8.244 1.526c-.15.448-.266.796-.415 1.227-1.476-.447-2.903-.862-4.313-1.293-1.973-.597-3.964-1.195-5.921-1.842-.564-.182-.83-.149-1.145.432-1.277 2.372-4.147 3.417-6.701 2.538-2.488-.863-4.064-3.5-3.666-6.105A5.634 5.634 0 019.2 0c2.654-.033 4.976 1.858 5.507 4.48.05.215.116.447.066.646-.216 1.078.382 1.377 1.277 1.642 3.252.962 6.486 1.99 9.837 3.02zm-13.735-4.23c0-1.576-1.343-2.92-2.886-2.92-1.592-.016-2.969 1.378-2.952 2.97 0 1.626 1.36 2.936 2.985 2.903 1.576-.033 2.87-1.36 2.853-2.953zm-1.045 25.644c3.683.647 7.282 1.261 10.965 1.908-.083.415-.15.78-.25 1.244-1.276-.215-2.52-.398-3.748-.614-2.29-.398-4.562-.78-6.834-1.21-.564-.1-.647.248-.83.58-1.642 2.837-5.225 3.666-7.961 1.858C.292 33.54-.587 30.654.409 28.232c1.011-2.471 3.649-3.848 6.352-3.317 2.422.48 4.313 2.77 4.363 5.275 0 .282-.017.597-.017 1.011zm-8.476-.812c.017 1.609 1.393 2.92 3.019 2.902 1.56-.033 2.87-1.393 2.853-2.969-.017-1.575-1.36-2.902-2.936-2.886a2.924 2.924 0 00-2.936 2.953zM41.976 64.46c2.522-2.207 5.043-4.43 7.63-6.686.332.282.648.548 1.012.863-2.62 2.306-5.208 4.578-7.845 6.884.862 1.758 1.028 3.533.182 5.341-.564 1.194-1.476 2.057-2.67 2.62a5.57 5.57 0 01-6.917-1.874 5.58 5.58 0 01.713-7.199c2.123-2.04 4.993-2.04 7.895.05zm-4.047 6.866c1.609.017 2.92-1.244 2.936-2.836a2.91 2.91 0 00-2.886-2.986c-1.61-.016-2.97 1.327-2.953 2.936 0 1.593 1.31 2.886 2.903 2.886zm14.912-44.437c-2.836 1.426-5.673 2.87-8.609 4.362-.215-.365-.398-.713-.647-1.128 2.92-1.492 5.79-2.952 8.692-4.445-.497-1.709-.448-3.35.498-4.877.713-1.144 1.708-1.957 2.986-2.388 2.521-.846 5.39.248 6.618 2.554 1.327 2.455.747 5.391-1.41 7.1-2.438 1.94-5.076 1.575-8.128-1.178zm7.58-3.152c.017-1.642-1.293-2.986-2.902-2.986-1.576 0-2.903 1.327-2.92 2.903-.016 1.61 1.328 2.986 2.92 2.986a2.917 2.917 0 002.903-2.903z" fill="#595959"/><circle cx="33.534" cy="36.477" r="9" stroke="#00A911" stroke-width="2.9"/></svg>