<svg width="103" height="74" fill="none" xmlns="http://www.w3.org/2000/svg"><path d="M64.618.045c11.334 0 22.69 0 34.023.022.605 0 1.277.067 1.814.291 1.143.516 1.68 1.479 1.68 2.733v51.605c0 .515.023 1.03-.067 1.523-.269 1.434-1.523 2.352-3.158 2.352H81.798c-2.509 0-5.04 0-7.548-.023-.515 0-.717.157-.717.672a175.72 175.72 0 010 4.816c0 .538.202.672.717.672 1.59 0 3.18-.067 4.726.112 2.956.336 5.084 2.867 5.084 5.868 0 .74-.045 1.478 0 2.195.045.56-.18.717-.717.717-3.942-.022-7.884 0-11.826 0h-25.13c-1.3 0-1.3 0-1.3-1.322 0-.739-.022-1.478.068-2.195.425-3.247 2.844-5.33 6.114-5.353 1.255 0 2.486-.022 3.74 0 .471 0 .628-.156.628-.627a172.546 172.546 0 010-4.815c0-.56-.157-.717-.717-.717-4.345.022-8.69 0-13.035 0h-11.49c-2.128 0-3.36-1.232-3.36-3.36v-23.54c0-9.407.022-18.814-.023-28.222C27.012 1.501 28.2 0 30.44 0c11.4.067 22.801.045 34.18.045zm-.022 55.659c11.266 0 22.555 0 33.821.022.65 0 .874-.156.874-.85-.023-17.09-.023-34.18 0-51.27 0-.605-.224-.761-.784-.739-1.3.022-2.576 0-3.875 0H30.775c-.851 0-.873.022-.873.851v51.157c0 .851 0 .851.85.851 11.29-.022 22.555-.022 33.844-.022zm16.62 14.984c-.045-.336-.045-.627-.112-.896-.404-1.366-1.568-2.217-3.069-2.217H51.224c-1.545 0-2.732.873-3.135 2.24-.224.829-.18.918.694.918H80.41c.247 0 .493-.022.806-.045zM64.574 58.571c-1.814 0-3.606.022-5.42 0-.493 0-.673.157-.65.65.022 1.612.022 3.202 0 4.815-.023.582.202.694.739.694 3.584-.022 7.167-.022 10.751 0 .538 0 .74-.156.74-.716-.023-1.59-.023-3.158 0-4.749 0-.582-.225-.717-.74-.694-1.814.022-3.606 0-5.42 0z" fill="#595959"/><path d="M30.08 61.774h2.8c.023.201.067.403.067.582 0 2.218.023 4.413 0 6.63-.022 2.755-1.97 4.614-4.725 4.614H4.748C1.86 73.6 0 71.763 0 68.896V7.638C0 5.04 1.904 3.046 4.457 3.046c6.294-.022 12.566 0 18.86 0 .156 0 .313.022.56.045 0 .851.022 1.68-.023 2.508 0 .112-.336.292-.538.292-1.232.022-2.441.022-3.673.022H4.793c-1.456 0-1.948.515-1.948 1.971v60.923c0 1.41.515 1.926 1.926 1.926h.067c1.254-.022 1.165.157 1.165-1.142 0-1.434.022-2.845 0-4.278 0-.47.156-.605.627-.605 6.585.022 13.148.022 19.732 0 .516 0 .583.224.583.65-.023 1.567.022 3.113-.023 4.68-.022.583.18.717.717.695 2.038 0 2.442-.38 2.442-2.397.022-2.15 0-4.322 0-6.562zm-13.662 8.959c2.284 0 4.591-.022 6.876.022.56 0 .829-.134.784-.739-.045-.56-.045-1.12 0-1.657.045-.582-.157-.784-.762-.762-1.657.023-3.292.023-4.95.023H9.542c-.516 0-.74.134-.695.672.045.582.045 1.164 0 1.724-.045.583.135.762.74.762 2.306-.067 4.569-.045 6.83-.045z" fill="#00A911"/><path d="M16.44 31.447c-2.217 0-4.457-.022-6.674.022-.65.023-.807-.201-.762-.806.045-.515.023-1.03 0-1.545-.022-.403.157-.538.56-.538h13.842c.426 0 .538.18.515.56a21.39 21.39 0 000 1.68c.045.515-.179.65-.65.65-2.284-.023-4.569 0-6.83-.023 0 .022 0 0 0 0zm7.459-12.027h-.986c-4.367 0-8.735 0-13.103.022-.627 0-.895-.157-.828-.806a8.149 8.149 0 000-1.479c-.023-.492.179-.604.627-.604 4.547.022 9.094.022 13.64 0 .493 0 .672.134.65.65-.023.694 0 1.41 0 2.217zm-7.391 6.024c-2.263 0-4.547-.022-6.81 0-.515 0-.739-.112-.694-.672.045-.56.023-1.12 0-1.68-.022-.403.157-.537.56-.537H23.34c.425 0 .605.134.582.582-.022.56-.045 1.12 0 1.68.045.515-.179.627-.65.627-2.262-.022-4.524 0-6.764 0zm2.866 16.62c0 1.657-1.254 2.934-2.89 2.934a2.959 2.959 0 01-2.956-2.912c0-1.59 1.344-2.956 2.912-2.956a2.944 2.944 0 012.934 2.934z" fill="#00A911"/><path d="M58.549 51.023c-.762-.022-1.411-.672-1.411-1.411 0-.784.65-1.411 1.478-1.389.806.023 1.411.65 1.389 1.479-.023.739-.65 1.321-1.456 1.321zm12.05-2.823c.828-.022 1.433.583 1.433 1.412 0 .784-.582 1.389-1.389 1.41-.806.023-1.478-.626-1.478-1.41.022-.762.672-1.389 1.433-1.411zm12.05 2.8a1.435 1.435 0 01-1.434-1.389c-.022-.761.672-1.433 1.456-1.433.829 0 1.411.627 1.389 1.456 0 .783-.627 1.366-1.411 1.366zm-48.156-2.8c.829 0 1.434.582 1.434 1.411 0 .784-.605 1.389-1.389 1.389-.806 0-1.478-.627-1.456-1.411 0-.74.65-1.389 1.411-1.389zM88.696 51c-.806 0-1.478-.65-1.456-1.411.023-.784.627-1.389 1.411-1.389.83 0 1.434.605 1.434 1.411 0 .784-.605 1.389-1.389 1.389zm-48.133 0c-.806 0-1.478-.627-1.456-1.411a1.4 1.4 0 011.411-1.389c.829 0 1.434.582 1.434 1.411 0 .784-.605 1.389-1.39 1.389zm13.417-1.389c0 .784-.605 1.389-1.39 1.389-.806 0-1.455-.627-1.455-1.411s.627-1.389 1.41-1.389c.83 0 1.434.605 1.434 1.411zM76.646 51c-.762 0-1.411-.605-1.433-1.366-.023-.762.649-1.434 1.455-1.434.784 0 1.389.605 1.411 1.389 0 .806-.604 1.411-1.433 1.411zm19.464-1.388c0 .784-.582 1.389-1.366 1.389-.806.022-1.478-.628-1.478-1.39 0-.76.627-1.388 1.388-1.41a1.389 1.389 0 011.456 1.41zm-48.133-.001c0 .784-.605 1.367-1.389 1.389-.806 0-1.456-.627-1.456-1.411a1.415 1.415 0 011.411-1.389c.807 0 1.434.605 1.434 1.411zm18.03.023c0 .784-.605 1.367-1.389 1.389-.806 0-1.478-.65-1.455-1.411a1.435 1.435 0 011.433-1.389c.829-.022 1.434.583 1.411 1.411z" fill="#595959"/></svg>