<svg width="75" height="76" fill="none" xmlns="http://www.w3.org/2000/svg"><path d="M57.526 75.391c-1.491-.431-3.08-.686-4.493-1.314-6.24-2.767-9.536-9.771-7.73-16.364.156-.55.058-.883-.334-1.275-3.218-3.179-6.397-6.377-9.575-9.556-.177-.176-.353-.333-.569-.53-.216.197-.412.374-.589.57-3.865 3.865-7.73 7.73-11.595 11.615a4.994 4.994 0 00-.785 1.04c-1.335 2.335-2.61 4.709-3.964 7.044-.255.431-.686.863-1.118 1.079-2.139 1.118-4.336 2.178-6.494 3.257-.962.47-1.335.432-2.08-.333L4.197 66.62c-.726-.746-.785-1.099-.333-2.021 1.098-2.197 2.178-4.395 3.296-6.553a2.623 2.623 0 011.04-1.08c2.394-1.392 4.827-2.727 7.24-4.08.255-.138.51-.315.706-.51 4.062-4.062 8.123-8.104 12.184-12.166.06-.058.099-.117.177-.215a11.956 11.956 0 00-.47-.51c-3.042-3.042-6.083-6.063-9.105-9.104-.372-.373-.667-.49-1.216-.334C8.239 32.58-.806 24.986.057 15.235c.098-1.197.451-2.394.805-3.571.392-1.276 1.412-1.492 2.354-.55 2.492 2.472 4.964 4.964 7.436 7.436.157.157.314.295.432.393 1.805-1.805 3.571-3.59 5.396-5.396a13.468 13.468 0 01-.49-.53 2509.914 2509.914 0 01-7.221-7.24c-1.06-1.079-.844-2.02.588-2.53 9.3-3.317 19.13 3.865 18.738 13.714-.04 1.099-.294 2.178-.51 3.257-.079.432-.059.706.255 1.04 8.77 8.75 17.521 17.502 26.272 26.272.334.334.628.412 1.099.294 5.494-1.353 10.3-.058 14.107 4.14 3.689 4.081 4.552 8.869 2.825 14.108-.47 1.432-1.451 1.648-2.53.569a2524.078 2524.078 0 01-7.221-7.24c-.196-.197-.294-.452-.412-.609l-5.572 5.573c.372.333.785.706 1.177 1.098 2.197 2.198 4.414 4.395 6.612 6.612 1.06 1.08.863 2.06-.569 2.531-1.06.334-2.178.55-3.257.825-.961-.04-1.903-.04-2.845-.04zm3.571-2.786c-.275-.294-.432-.47-.608-.628-2.198-2.197-4.415-4.395-6.612-6.612-.864-.863-.883-1.452 0-2.315l6.651-6.651c.942-.942 1.51-.942 2.472.02 2.178 2.157 4.336 4.335 6.495 6.494.176.176.372.353.627.608.079-.353.138-.589.177-.864.922-8.495-7.162-14.95-15.265-12.145-.843.295-1.471.138-2.1-.51A18355.555 18355.555 0 0025.31 22.376c-.648-.647-.785-1.255-.49-2.099 2.57-7.495-2.787-15.147-10.713-15.304-.726-.02-1.472.098-2.374.176.333.354.51.55.706.746l6.553 6.553c.844.844.844 1.492 0 2.316l-6.651 6.651c-.922.922-1.491.922-2.414 0-2.177-2.178-4.375-4.356-6.553-6.553-.176-.177-.255-.471-.373-.726-.098.078-.196.176-.294.255-.314 1.373-.294 2.747-.02 4.12 1.393 7.044 8.359 11.086 15.167 8.75.785-.274 1.374-.176 1.982.433 9.241 9.28 18.502 18.521 27.783 27.782.608.609.726 1.197.431 1.982-2.08 5.984.805 12.263 6.69 14.578 2.041.805 4.102 1 6.358.57zM30.136 41.781c-.138.177-.255.432-.452.628-3.08 3.1-6.22 6.122-9.221 9.28-1.982 2.08-4.16 3.846-6.75 5.102-1.314.647-2.57 1.413-3.845 2.139-.256.157-.51.392-.648.647-.883 1.727-1.727 3.453-2.61 5.18-.196.373-.117.608.157.883.825.804 1.649 1.609 2.433 2.452.295.314.53.314.883.138 1.649-.844 3.336-1.648 4.984-2.512.333-.176.667-.49.863-.824 1.295-2.276 2.57-4.571 3.866-6.847.235-.393.51-.785.843-1.1 3.924-3.943 7.868-7.867 11.792-11.81.177-.177.353-.373.51-.53-.902-.923-1.766-1.786-2.805-2.826z" fill="#595959"/><path d="M74.772 12.743c0 2.08-.726 3.885-2.08 5.435-2.138 2.472-4.257 4.944-6.396 7.397-.274.314-.667.588-1.04.804-4.002 2.433-8.005 4.827-12.007 7.28-.314.196-.589.569-.726.922-.49 1.334-.903 2.688-1.354 4.042-.451 1.334-1.452 1.57-2.453.569-4.356-4.356-8.711-8.692-13.047-13.048-1.04-1.04-.805-2.021.569-2.472 1.353-.452 2.707-.883 4.022-1.374.353-.137.726-.412.922-.726 2.394-3.944 4.748-7.887 7.122-11.831a5.11 5.11 0 01.981-1.177 740.714 740.714 0 017.338-6.357c3.473-3.002 8.221-2.845 11.478.392 1.433 1.413 2.865 2.825 4.258 4.277 1.648 1.629 2.413 3.571 2.413 5.867zM38.847 25.477c3.492 3.512 6.985 7.004 10.497 10.516.294-.863.628-1.746.883-2.668.216-.765.628-1.256 1.315-1.668 4.08-2.433 8.142-4.905 12.204-7.358a4.66 4.66 0 00.961-.784 662.074 662.074 0 006.004-6.966c2.158-2.53 2.04-5.71-.294-8.064a403.211 403.211 0 00-4.101-4.1C64 2.089 60.802 1.97 58.31 4.11c-2.374 2.04-4.748 4.1-7.103 6.18a4.57 4.57 0 00-.844 1.001c-2.413 4.003-4.846 8.005-7.22 12.047-.392.667-.883 1.06-1.609 1.275-.942.256-1.864.59-2.688.864z" fill="#00A911"/></svg>