<svg width="10" height="15" fill="none" xmlns="http://www.w3.org/2000/svg"><path d="M4.853.198c.144.02.29.041.454.062a4.287 4.287 0 012.275 1.054 4.402 4.402 0 011.53 2.647 4.53 4.53 0 01-.434 2.936c-1.344 2.647-2.688 5.294-4.053 7.94 0 .022-.02.042-.041.063-.02-.02-.02-.041-.042-.083C3.178 12.15 1.812 9.482.47 6.815a4.319 4.319 0 01-.455-2.337 4.434 4.434 0 011.489-3.08C2.143.797 2.888.445 3.757.28c.165-.04.351-.04.517-.062.02 0 .04 0 .062-.02h.517zm2.502 4.59c0-1.51-1.22-2.75-2.75-2.75s-2.771 1.22-2.771 2.75c0 1.51 1.24 2.75 2.75 2.75a2.74 2.74 0 002.77-2.75z" fill="#00A911"/></svg>