<svg width="12" height="13" fill="none" xmlns="http://www.w3.org/2000/svg"><path d="M7.415 12.935c-.145-.015-.291-.03-.437-.058a4.567 4.567 0 01-1.47-.583c-1.427-.83-2.563-1.965-3.48-3.32a12.393 12.393 0 01-1.558-3.1 8.77 8.77 0 01-.437-2.04c-.043-.48-.058-.946.044-1.426C.252 1.622.689.996 1.329.53c.291-.22.597-.38.947-.48a1.1 1.1 0 01.655 0c.276.087.466.276.597.538.189.379.32.786.437 1.194.087.32.16.655.232.99.03.131.015.277 0 .422-.029.233-.174.393-.364.524a3.916 3.916 0 01-.698.35c-.204.087-.394.16-.597.247-.16.073-.219.204-.175.379A12.724 12.724 0 004.256 8.26c.437.583.902 1.107 1.427 1.602.16.16.334.145.466-.03.232-.29.465-.567.771-.771.19-.131.408-.248.655-.248.16-.014.32.03.452.117.67.408 1.296.888 1.805 1.5.102.116.175.247.248.378a.9.9 0 01-.015.86c-.16.305-.408.538-.684.727a3.03 3.03 0 01-1.558.568c-.015 0-.044.015-.058.015-.088-.044-.219-.044-.35-.044zm4.514-6.975c0 .423-.044.816-.117 1.21a.576.576 0 01-.567.465.565.565 0 01-.568-.466.669.669 0 01.014-.291c.248-1.369-.043-2.62-.873-3.727-.7-.947-1.646-1.53-2.781-1.777a.59.59 0 01-.48-.568.59.59 0 01.45-.582c.146-.044.292 0 .437.044 2.184.524 3.859 2.242 4.368 4.44.073.423.117.845.117 1.253z" fill="#00A911"/><path d="M9.992 6.165c0 .29-.029.567-.087.844a.572.572 0 01-.611.466c-.306-.03-.54-.248-.554-.553 0-.073.015-.16.03-.233.13-.801-.015-1.544-.467-2.213a2.958 2.958 0 00-1.878-1.282.602.602 0 01-.495-.51.568.568 0 01.685-.64c1.223.262 2.154.932 2.795 1.995.393.655.582 1.368.582 2.126z" fill="#00A911"/><path d="M8.041 6.34c-.029.174-.029.334-.073.509a.584.584 0 01-.67.451.59.59 0 01-.465-.684 1.367 1.367 0 00-.772-1.514A2.51 2.51 0 005.755 5a.59.59 0 01-.437-.568.59.59 0 01.452-.568c.13-.03.247 0 .364.03A2.565 2.565 0 018.04 6.338z" fill="#00A911"/></svg>