<svg width="25" height="24" fill="none" xmlns="http://www.w3.org/2000/svg"><path d="M14.12 0c.319.014.638.014.956.028.569.014 1.137.014 1.705.055.526.042.928.347 1.233.748.25.347.388.721.388 1.15 0 1.455.014 2.897.028 4.352v10.184c0 1.885-.014 3.756-.042 5.64-.014.707-.582 1.497-1.247 1.704a2.769 2.769 0 01-.831.111c-2.522.014-5.044.014-7.566.028-.471 0-.929-.014-1.4-.042-.637-.027-1.067-.388-1.413-.886-.263-.402-.305-.846-.319-1.317 0-1.607-.014-3.215-.028-4.822V7.94c0-1.718.014-3.437.014-5.169 0-.29 0-.595.014-.886C5.64 1.08 6.277.29 7.053.097c.083-.028.18-.028.277-.028L9.672.028c.056 0 .097-.014.153-.014C11.252 0 12.693 0 14.12 0zM6.416 12v10.046c0 .388.18.665.443.9a.781.781 0 00.527.209c.29.014.582.027.873.027 1.898.014 3.81.028 5.709.014.9 0 1.787-.027 2.688-.055.499-.014.915-.637.915-.97V2.009c0-.318-.111-.568-.305-.803-.153-.18-.347-.333-.596-.347a19.34 19.34 0 00-1.552-.041L7.386.859c-.457 0-.97.527-.97.998V12zM0 11.612V6.388c0-1.261.014-2.536.042-3.797.013-.623.36-1.067.845-1.413.29-.208.61-.319.97-.319C2.785.845 3.7.845 4.628.831c.153 0 .333.18.347.36.013.18-.097.361-.264.375-.332.028-.665.041-.997.055-.61.014-1.234.042-1.843.042-.416 0-.68.25-.901.554a.87.87 0 00-.152.527v17.875c0 .083.013.18.055.25.25.498.651.748 1.22.748.761 0 1.537.014 2.3.014.29 0 .498.36.346.61-.042.069-.152.124-.236.138-.346.027-.706.055-1.053.055-.512 0-1.039 0-1.552-.027a1.952 1.952 0 01-1.801-1.428 1.366 1.366 0 01-.042-.332l-.041-3.16C0 15.52.014 13.566 0 11.612c.014 0 0 0 0 0zm24.014.111l-.041 8.092c0 .263-.014.527-.014.79 0 .61-.333 1.053-.776 1.413-.305.264-.68.375-1.081.375-.804.014-1.608 0-2.397 0-.042 0-.097-.014-.139-.014-.305-.056-.374-.153-.332-.457a.308.308 0 01.263-.264c.18-.027.374-.027.554-.041.568-.014 1.136-.014 1.704-.014.153 0 .305-.014.458-.028.485-.07.762-.388.97-.79.014-.041.014-.083.014-.125V5.778c0-1.025-.014-2.05-.028-3.076-.014-.582-.43-1.025-.998-1.053a103.8 103.8 0 00-2.162-.055c-.221 0-.443-.028-.665-.042-.263-.014-.388-.36-.207-.582.083-.11.18-.18.346-.166.776.014 1.552 0 2.328.014.388 0 .776.013 1.136.207.554.305.956.749 1.053 1.386.056.374.028.748.042 1.122-.056 2.703-.042 5.39-.028 8.19z" fill="#595959"/><path d="M20.799 12c-.402 0-.804-.014-1.206 0-.18 0-.263-.097-.332-.222-.083-.124-.07-.277.014-.402.083-.11.18-.194.346-.18.804.014 1.594.014 2.397 0 .194 0 .264.139.347.264.083.11.028.221-.042.318-.097.139-.194.208-.388.208-.374 0-.762.014-1.136.014zM3.201 12H1.954c-.222 0-.43-.346-.319-.527.097-.166.208-.263.43-.263.776.014 1.552.014 2.328 0 .166 0 .25.083.332.208a.333.333 0 010 .388c-.083.125-.166.222-.346.208C3.99 12 3.589 12 3.2 12zm17.543-3.963h1.219c.277 0 .416.125.43.374 0 .222-.139.374-.375.388-.29.014-.568.028-.859.028-.498 0-.997-.014-1.482-.028-.042 0-.084-.014-.125-.014-.139-.027-.277-.055-.305-.235-.041-.194.042-.416.18-.5.028-.013.083-.013.125-.013.388-.014.79-.014 1.192 0 0-.014 0-.014 0 0zM3.215 4.808h1.177c.278 0 .485.305.36.555-.069.138-.152.235-.332.221-.762-.014-1.51-.014-2.272-.027-.07 0-.125 0-.194-.014-.264-.042-.333-.125-.333-.374.014-.222.139-.36.36-.36.375-.015.749-.015 1.123-.015.027.014.07.014.11.014zm-.014 3.229h1.164c.305 0 .471.208.402.471-.042.152-.139.25-.291.25-.596.027-1.192.041-1.788.041-.235 0-.457-.014-.692-.028-.167-.014-.305-.069-.375-.235a.387.387 0 01.084-.416c.097-.11.221-.097.332-.097.402 0 .79.014 1.164.014zM20.785 5.57h-1.22c-.235 0-.36-.152-.36-.36a.39.39 0 01.389-.402h1.898c.18 0 .374.014.554.028.194.014.319.152.319.374s-.097.347-.319.36h-1.26zm-.762 12.86c-.18-.014-.319-.014-.457-.042-.208-.028-.347-.18-.347-.374 0-.208.139-.402.347-.416.305-.014.623 0 .928.028.18.014.305.18.305.36 0 .194-.11.347-.305.388-.18.042-.346.042-.471.056zm-16.046-.846c.166.014.305.014.457.028.194.028.347.18.347.374s-.125.388-.32.402a6.325 6.325 0 01-.886 0 .367.367 0 01-.36-.402c0-.194.138-.346.374-.374.125-.014.277-.014.388-.028zm16.004 2.453c-.152-.028-.332-.028-.498-.07-.195-.04-.278-.18-.264-.387.014-.18.125-.319.305-.333.346-.014.693 0 1.025.014.167.014.278.25.222.443-.041.153-.138.264-.305.291-.152.014-.318.014-.485.042zM3.99 19.233c.153 0 .32-.014.472 0 .194.014.319.153.319.333.013.194-.111.388-.278.402-.318.027-.637.055-.956.014a.375.375 0 01-.221-.652.405.405 0 01.221-.097c.139-.014.291 0 .444 0zM19.607 3.215c.194 0 .402.194.402.374 0 .235-.18.416-.388.416a.402.402 0 01-.402-.402c0-.194.194-.388.388-.388zm-14.812.388a.421.421 0 01-.402.402.392.392 0 01-.374-.375.39.39 0 01.388-.401.376.376 0 01.388.374zm14.812 6.014c.222 0 .402.166.402.374s-.208.402-.402.402c-.208 0-.388-.194-.388-.402 0-.194.18-.36.388-.374zm-15.574.388c0-.222.138-.375.36-.375.208 0 .416.18.416.388.013.194-.194.416-.375.402-.249-.041-.415-.152-.401-.415zM19.607 6.43c.236 0 .402.152.402.36a.4.4 0 01-.388.402.403.403 0 01-.388-.416c0-.194.152-.346.374-.346zm-15.201 0c.25 0 .402.152.388.388 0 .207-.194.374-.401.374a.358.358 0 01-.36-.36c0-.25.138-.402.373-.402zM12 11.21h4.406c.18 0 .264.097.333.222.07.125.07.263-.028.402-.083.124-.18.18-.346.18H7.593c-.29 0-.485-.319-.346-.568a.371.371 0 01.36-.222c1.469 0 2.938-.014 4.393-.014zm.07-8.813H8.59c-.36 0-.734-.014-1.094-.041-.194-.014-.291-.167-.277-.388.013-.208.124-.319.318-.319 1.83-.014 3.645-.028 5.474-.028.983 0 1.967 0 2.951.014.208 0 .402.028.61.056.11.013.18.083.208.194.069.29-.125.54-.416.54-1.441-.014-2.868-.014-4.296-.028zM12 5.598H7.58a.377.377 0 01-.375-.346c-.013-.222.153-.416.36-.416.486-.014.97-.014 1.47-.014h7.357c.167 0 .264.097.347.208a.355.355 0 01-.014.402c-.07.11-.152.166-.291.166-.915-.014-1.83 0-2.744 0a34.369 34.369 0 00-1.69 0c0-.014 0 0 0 0zm0 2.425h4.434c.166 0 .263.097.319.222.069.152.069.318-.042.443-.041.056-.152.083-.221.083-.485.028-.957.056-1.442.056H8.48c-.305 0-.61-.014-.914-.042-.333-.028-.458-.319-.264-.596.07-.097.139-.152.278-.152 1.468-.014 2.937-.014 4.42-.014zm-.028 11.197h2.037c.236 0 .416.249.36.47-.055.194-.193.305-.387.305h-3.977a.393.393 0 01-.347-.582c.07-.124.153-.194.319-.194.665.014 1.33 0 1.995 0zM12 20.827h2.023c.18 0 .25.124.319.235.083.111.055.25-.028.36a.486.486 0 01-.402.209c-1.303-.014-2.605 0-3.908 0-.166 0-.36-.167-.401-.347-.028-.139.097-.374.221-.443.028-.014.083-.014.111-.014.707-.014 1.386 0 2.065 0zm0-3.243a.781.781 0 01-.804-.776c0-.43.374-.803.804-.817.388 0 .776.388.776.79a.757.757 0 01-.776.803zm-.374-13.995c0-.222.152-.374.36-.374.25 0 .416.152.416.388 0 .221-.166.402-.374.388a.386.386 0 01-.402-.402zm.388 6.028c.194 0 .402.207.416.401 0 .167-.222.388-.388.388-.208 0-.402-.18-.402-.388-.028-.207.166-.401.374-.401zm-.388-2.827c0-.208.166-.374.374-.374.222 0 .402.18.402.374s-.194.402-.388.402c-.208.014-.388-.18-.388-.402z" fill="#595959"/></svg>