<svg width="19" height="24" fill="none" xmlns="http://www.w3.org/2000/svg"><path d="M9.893 7.652h0c-3.23-.081-5.806 2.428-5.806 5.658v2.443c0 .288-.002.575-.003.86-.004.567-.007 1.129.003 1.68h0a5.627 5.627 0 003.853 5.304h0c.974.339 1.993.34 3.01.258.764-.065 1.389-.727 1.428-1.493a27.63 27.63 0 000-2.82v-.001h0c-.039-.838-.762-1.48-1.628-1.506l-.324.003c-.223.003-.449.006-.672-.003a.817.817 0 01-.56-.217.762.762 0 01-.213-.559m.912-9.607l-.812 9.606m.812-9.606h.777c.944 0 1.697.68 1.723 1.615h0c.027.882.027 1.763 0 2.644-.04.911-.767 1.59-1.683 1.602h0-.003a9.3 9.3 0 01-.625.003c-.107-.001-.214-.003-.323-.003v0h-.003c-.231.008-.428.075-.566.212-.14.137-.208.33-.208.564m.912-6.637l-.812 6.638m-.1 2.969s0 0 0 0h.1m-.1 0s0 0 0 0h.1m-.1 0c-.014-.995-.014-1.975 0-2.97m.1 2.97c-.014-.995-.014-1.975 0-2.97m-.1 0s0 0 0 0h.1m-.1 0s0 0 0 0h.1m.58-5.166h0c.096 0 .19.001.282.003.182.003.359.006.54-.003.148-.014.278.008.363.104.08.092.096.224.089.36-.01.226-.007.445-.003.668.001.114.003.23.003.348 0 .113-.002.225-.003.338-.003.225-.007.451.003.68.007.13-.008.255-.088.342-.083.09-.208.115-.349.107-.18-.009-.359-.006-.54-.003-.093.002-.187.003-.282.003-1.19.027-2.139.952-2.165 2.139a119.495 119.495 0 000 3.144c.026 1.188.975 2.125 2.179 2.152.1 0 .198.002.295.004.19.003.378.006.568-.003.11-.008.217.004.295.073.079.07.1.177.1.289v0c0 .745 0 1.478-.013 2.224v.008l-.002.007a.474.474 0 01-.096.194.457.457 0 01-.077.079.201.201 0 01-.115.045h-.004v-.1c-1.118.056-2.222.014-3.189-.676L9.66 9.123zm0 0c-2.25.014-4.09 1.839-4.104 4.09l4.103-4.09zm8.104-5.575c.22.221.386.47.345.787-.041.332-.235.58-.552.677l.207-1.464zm0 0l-.071.071s0 0 0 0l.002.001.069-.072zM9.384.1h.001V0l-.002.1h.001zM2.55 1.962s0 0 0 0 0 0 0 0l-.054-.084.054.084zm-1.171 2.77h-.002l-.001.002.07.07-.067-.073zm15.366.001s0 0 0 0h-.001l-.069.072.07-.072zM15.39 5.995h0c.304.29.358.642.19.942l-.001.002a.705.705 0 01-.833.339 1.16 1.16 0 01-.417-.28h0l-.001-.001c-2.616-2.518-6.8-2.855-9.808-.588-.266.197-.518.42-.754.642h0v.001c-.341.328-.777.344-1.077.055-.301-.289-.308-.761.041-1.098h0c1.517-1.476 3.319-2.322 5.422-2.54A18.707 18.707 0 019 3.413c2.53.055 4.63.889 6.39 2.581z" fill="#595959" stroke="#fff" stroke-width=".2"/></svg>