<svg width="27" height="24" fill="none" xmlns="http://www.w3.org/2000/svg"><path d="M9.628 23.993H1.834c-.902 0-1.559-.473-1.773-1.268A2.052 2.052 0 010 22.19V11.4c0-.901.474-1.543 1.284-1.757.198-.046.412-.061.626-.061h15.45c.963 0 1.605.443 1.835 1.268.045.168.06.352.06.535v10.79c0 .917-.488 1.558-1.314 1.772-.183.046-.397.046-.596.046-2.582.016-5.15 0-7.717 0zm8.634-3.408v-9.077c0-.719-.244-.948-.962-.948-5.135 0-10.255 0-15.39-.015-.672 0-.962.382-.962.947.015 2.92 0 5.838 0 8.772v.321h17.314zm-.015 1.009H.963c0 .153.015.29 0 .428-.061.657.275 1.024.993 1.024 5.104-.016 10.193-.016 15.298-.016h.336c.306-.03.611-.29.642-.596.046-.275.015-.55.015-.84zM13.77 8.207A4.096 4.096 0 019.674 4.11 4.086 4.086 0 0113.77.015a4.096 4.096 0 014.095 4.096c.015 2.246-1.834 4.08-4.095 4.096zm3.117-4.127A3.121 3.121 0 0013.724.963a3.111 3.111 0 00-3.087 3.148 3.124 3.124 0 003.148 3.102 3.101 3.101 0 003.102-3.133zM4.096 8.207C1.849 8.207-.015 6.342 0 4.096A4.119 4.119 0 014.111 0a4.096 4.096 0 014.096 4.096c0 2.261-1.85 4.095-4.111 4.11zm.015-.978c1.742-.016 3.133-1.406 3.118-3.149C7.213 2.37 5.807.978 4.08.978A3.12 3.12 0 00.978 4.111a3.134 3.134 0 003.133 3.118zm22.465 7.992v3.225c0 .168-.015.336-.03.504-.123.749-.81 1.238-1.514.948-1.711-.703-3.24-1.697-4.019-3.47-.58-1.344-.214-2.567.688-3.652.825-1.009 1.91-1.712 3.087-2.246.87-.398 1.696.091 1.773 1.039.06.855.03 1.711.03 2.567-.015.367-.015.734-.015 1.085zm-.978-.061v-3.377c-.015-.428-.138-.52-.505-.337-.947.459-1.818 1.04-2.536 1.804-.902.963-1.085 2.093-.535 3.117.275.52.657.963 1.13 1.3.627.442 1.284.855 1.941 1.237.321.184.474.077.49-.305v-.23c.015-1.054.015-2.124.015-3.209z" fill="#595959"/><path d="M6.358 15.68c0-.871-.03-1.727.015-2.598.03-.871.795-1.33 1.605-1.024a2.3 2.3 0 01.29.122c1.238.642 2.476 1.299 3.713 1.94.505.26.902.612.795 1.239-.046.26-.214.489-.367.718-.076.122-.229.199-.351.29-1.268.856-2.537 1.727-3.79 2.583-.413.29-.856.504-1.345.23-.489-.26-.55-.734-.55-1.223V15.68h-.015zm.993 2.674c.153-.076.275-.137.367-.214a809.967 809.967 0 013.774-2.567c.077-.046.138-.107.214-.153.153-.122.138-.23-.03-.336-.061-.046-.122-.077-.199-.123a875.735 875.735 0 00-3.652-1.91c-.077-.046-.153-.076-.23-.107-.152-.061-.229 0-.244.168 0 .077-.015.153-.015.23v4.645c0 .107 0 .214.015.367z" fill="#595959"/></svg>