<svg width="27" height="13" fill="none" xmlns="http://www.w3.org/2000/svg"><mask id="path-1-inside-1_8_1730" fill="#fff"><path d="M14.665 12.948c-.018 0-.053-.018-.07-.018h-.487c-.261 0-.522 0-.766-.034a26.314 26.314 0 01-1.148-.192c-.435-.07-.852-.243-1.27-.417a5.826 5.826 0 01-1.095-.644 6.33 6.33 0 01-.957-.852 5.54 5.54 0 01-.8-1.096 7.895 7.895 0 01-.61-1.357c-.086-.296-.173-.591-.208-.905-.017-.208-.052-.417-.07-.626-.017-.191-.017-.383-.017-.574.017-.209.035-.417.07-.644.034-.226.07-.47.121-.695.087-.348.21-.679.348-1.01.174-.382.366-.765.61-1.095.138-.209.295-.4.469-.592.156-.174.313-.348.487-.504a5.7 5.7 0 01.974-.73c.191-.105.365-.21.557-.314A6.01 6.01 0 0112.02.197c.261-.07.54-.105.818-.14a4.25 4.25 0 011.148-.034 5.39 5.39 0 011.479.26c.435.14.852.314 1.27.523.313.174.626.365.904.609.226.208.47.4.679.626.208.226.417.47.591.713.191.278.365.557.522.852.191.348.33.731.435 1.114a9.1 9.1 0 01.174.748c.035.156.035.313.052.487.017.139.017.295.035.452h-1.705c0-.104-.017-.209-.017-.296a3.96 3.96 0 00-.157-.887 5.29 5.29 0 00-.418-1.026 3.628 3.628 0 00-.504-.73c-.122-.123-.226-.262-.348-.384a4.112 4.112 0 00-.94-.695c-.312-.174-.626-.33-.956-.418-.244-.07-.487-.104-.73-.156a2.74 2.74 0 00-.923-.035c-.278.017-.574.07-.852.122a4.11 4.11 0 00-1.061.382c-.296.157-.574.33-.818.54-.191.174-.382.33-.539.521a4.67 4.67 0 00-.818 1.27 3.91 3.91 0 00-.295.94c-.052.243-.07.504-.087.748a2.794 2.794 0 000 .539c.017.296.07.591.156.887.105.365.226.713.418 1.044.139.243.313.487.487.713.139.191.313.348.47.505.243.243.521.434.817.608.296.174.609.313.94.4.26.07.539.122.8.175a7.21 7.21 0 001.357.104c.348 0 .695.017 1.043.017h11.15V13c-4-.052-7.966-.052-11.933-.052z"/></mask><path d="M14.665 12.948c-.018 0-.053-.018-.07-.018h-.487c-.261 0-.522 0-.766-.034a26.314 26.314 0 01-1.148-.192c-.435-.07-.852-.243-1.27-.417a5.826 5.826 0 01-1.095-.644 6.33 6.33 0 01-.957-.852 5.54 5.54 0 01-.8-1.096 7.895 7.895 0 01-.61-1.357c-.086-.296-.173-.591-.208-.905-.017-.208-.052-.417-.07-.626-.017-.191-.017-.383-.017-.574.017-.209.035-.417.07-.644.034-.226.07-.47.121-.695.087-.348.21-.679.348-1.01.174-.382.366-.765.61-1.095.138-.209.295-.4.469-.592.156-.174.313-.348.487-.504a5.7 5.7 0 01.974-.73c.191-.105.365-.21.557-.314A6.01 6.01 0 0112.02.197c.261-.07.54-.105.818-.14a4.25 4.25 0 011.148-.034 5.39 5.39 0 011.479.26c.435.14.852.314 1.27.523.313.174.626.365.904.609.226.208.47.4.679.626.208.226.417.47.591.713.191.278.365.557.522.852.191.348.33.731.435 1.114a9.1 9.1 0 01.174.748c.035.156.035.313.052.487.017.139.017.295.035.452h-1.705c0-.104-.017-.209-.017-.296a3.96 3.96 0 00-.157-.887 5.29 5.29 0 00-.418-1.026 3.628 3.628 0 00-.504-.73c-.122-.123-.226-.262-.348-.384a4.112 4.112 0 00-.94-.695c-.312-.174-.626-.33-.956-.418-.244-.07-.487-.104-.73-.156a2.74 2.74 0 00-.923-.035c-.278.017-.574.07-.852.122a4.11 4.11 0 00-1.061.382c-.296.157-.574.33-.818.54-.191.174-.382.33-.539.521a4.67 4.67 0 00-.818 1.27 3.91 3.91 0 00-.295.94c-.052.243-.07.504-.087.748a2.794 2.794 0 000 .539c.017.296.07.591.156.887.105.365.226.713.418 1.044.139.243.313.487.487.713.139.191.313.348.47.505.243.243.521.434.817.608.296.174.609.313.94.4.26.07.539.122.8.175a7.21 7.21 0 001.357.104c.348 0 .695.017 1.043.017h11.15V13c-4-.052-7.966-.052-11.933-.052z" fill="#595959"/><path d="M13.342 12.896l.029-.198h-.002l-.027.198zm-1.148-.192l.036-.197h-.004l-.032.197zm-1.27-.417l-.082.182.005.002.078-.184zm-1.095-.644l.12-.16-.006-.004-.114.164zm-.957-.852l.145-.138-.145.138zm-.8-1.096l-.175.098.175-.098zm-.61-1.357l-.191.056.002.007.19-.063zm-.208-.905l-.2.017.001.005.199-.022zm-.07-.626l.2-.016v-.002l-.2.018zm-.017-.574l-.2-.017v.017h.2zm.191-1.34l-.194-.048v.004l.194.045zm.348-1.008l-.182-.083-.002.005.184.078zm.61-1.096l.16.119.006-.008-.167-.111zm.469-.592l.148.135-.148-.135zm.487-.504l.134.149.003-.004-.137-.145zm.974-.73L10.15.785l-.007.005.103.171zm.557-.314l-.09-.179-.006.004.096.175zM12.02.197l.049.194h.003L12.02.196zm.818-.14l.025.2.01-.003-.035-.196zm1.148-.034l-.018.2h.011l.007-.2zm1.479.26l-.062.191.062-.19zm1.27.523l.097-.175-.008-.004-.09.179zm.904.609l.136-.148-.004-.003-.132.15zm1.27 1.339l.165-.113-.002-.003-.163.116zm.522.852l-.177.094.002.003.175-.097zm.435 1.114l-.193.052v.003l.193-.055zm.174.748l-.196.039v.004l.196-.043zm.052.487l-.2.02.002.005.198-.025zm.035.452v.2h.223l-.024-.222-.2.022zm-1.705 0h-.2v.2h.2v-.2zm-.017-.296h.2V6.1l-.2.011zm-.157-.887l-.192.055v.002l.192-.057zm-.418-1.026l.178-.093-.001-.001-.177.094zm-.504-.73l.148-.136-.006-.006-.142.141zm-.348-.384l-.141.142.141-.142zm-.94-.695l-.096.174.097-.174zm-.956-.418l-.055.193h.004l.051-.193zm-.73-.156l-.044.195h.002l.041-.195zm-.923-.035l.013.2.01-.001-.023-.2zm-.852.122l-.037-.197.037.197zm-1.061.382l-.09-.179-.004.003.094.176zm-.818.54l-.13-.152-.004.004.134.148zm-.539.521l.148.135.007-.008-.155-.127zm-.818 1.27l.183.082-.183-.082zm-.295.94l.195.042.002-.01-.197-.032zm-.087.748l.199.02v-.006l-.2-.014zm0 .539l.2-.012-.001-.008-.2.02zm.156.887l.193-.055v-.001l-.193.056zm.418 1.044l.173-.1-.173.1zm.487.713l.162-.118-.004-.004-.158.122zM12.246 11l.052-.193-.052.194zm.8.175l-.038.196.039-.196zm13.552.121h.2v-.2h-.2v.2zm0 1.705l-.003.2.203.003V13h-.2zm-11.933-.252a.16.16 0 01.028.002l.008.002-.008-.003a.546.546 0 00-.056-.015.247.247 0 00-.042-.004v.4a.159.159 0 01-.037-.004l.008.003.03.009a.28.28 0 00.069.01v-.4zm-.07-.018h-.487v.4h.487v-.4zm-.487 0c-.264 0-.51 0-.737-.032l-.057.396c.26.037.536.036.794.036v-.4zm-.739-.033c-.377-.051-.755-.12-1.139-.19l-.071.394c.381.07.769.14 1.156.193l.055-.396zm-1.143-.19c-.408-.065-.803-.23-1.225-.405l-.153.37c.413.172.852.356 1.315.43l.063-.395zm-1.219-.402a5.63 5.63 0 01-1.058-.622l-.24.32c.36.27.739.487 1.133.666l.165-.364zm-1.064-.626a6.136 6.136 0 01-.926-.826l-.29.275c.3.318.623.625.987.879l.23-.328zm-.926-.826a5.336 5.336 0 01-.771-1.057l-.349.197c.233.413.504.791.83 1.135l.29-.275zm-.77-1.056a7.695 7.695 0 01-.595-1.322l-.379.126c.161.484.376.948.624 1.392l.35-.196zm-.592-1.315c-.088-.299-.17-.578-.202-.87l-.398.043c.037.334.13.646.216.94l.384-.113zm-.202-.865a7.56 7.56 0 00-.035-.322 7.464 7.464 0 01-.034-.304l-.399.033c.01.109.023.217.036.321.013.105.025.205.034.305l.398-.033zm-.07-.628a6.143 6.143 0 01-.016-.556h-.4c0 .19 0 .39.018.592l.399-.036zm-.017-.54c.018-.209.035-.41.068-.63l-.395-.06c-.036.234-.054.45-.071.657l.398.034zm.068-.63c.036-.229.07-.463.12-.68l-.39-.09c-.055.235-.09.488-.125.71l.395.06zm.118-.677a6.81 6.81 0 01.339-.98l-.37-.155a7.109 7.109 0 00-.357 1.038l.388.097zm.336-.975c.173-.38.357-.747.588-1.06l-.322-.237c-.256.348-.455.746-.63 1.132l.364.165zM8.482 2.9c.132-.198.281-.382.45-.568l-.295-.27a5.201 5.201 0 00-.488.616l.333.222zm.451-.569c.158-.175.308-.341.473-.49l-.268-.297c-.183.165-.346.347-.502.52l.297.267zm.476-.493a5.5 5.5 0 01.94-.704L10.143.79a5.9 5.9 0 00-1.008.756l.274.291zm.933-.7c.098-.053.19-.107.282-.159.091-.052.18-.103.274-.154l-.191-.351c-.098.053-.19.106-.282.158-.091.052-.181.104-.275.155l.192.35zm.55-.31a5.84 5.84 0 011.177-.437l-.097-.388c-.432.108-.864.27-1.259.467l.18.358zm1.18-.438c.245-.065.51-.099.79-.134l-.049-.397c-.276.035-.568.07-.844.145l.103.386zm.802-.136a4.04 4.04 0 011.094-.032l.036-.398a4.434 4.434 0 00-1.202.037l.072.393zm1.105-.031c.486.016.954.1 1.425.251l.122-.38a5.59 5.59 0 00-1.533-.271l-.014.4zm1.425.251a8.76 8.76 0 011.241.51l.179-.357a9.064 9.064 0 00-1.298-.534l-.122.381zm1.233.506c.31.172.608.356.87.585l.264-.301a5.345 5.345 0 00-.94-.633l-.194.35zm.866.581c.243.225.465.396.668.615l.294-.27c-.215-.234-.48-.445-.69-.638l-.271.293zm.668.615c.206.223.408.46.575.694l.326-.232a7.766 7.766 0 00-.607-.733l-.294.271zm.573.691a8.4 8.4 0 01.51.833l.354-.187a8.814 8.814 0 00-.534-.872l-.33.226zm.512.836c.181.33.315.697.417 1.07l.386-.106a5.304 5.304 0 00-.453-1.157l-.35.193zm.418 1.072c.067.235.118.472.17.732l.392-.079a9.6 9.6 0 00-.178-.763l-.384.11zm.17.736c.032.142.029.263.049.464l.398-.04c-.015-.148-.018-.34-.056-.51l-.39.086zm.05.469c.007.061.011.129.016.206.004.075.009.159.018.243l.398-.044a3.079 3.079 0 01-.017-.222 3.132 3.132 0 00-.019-.233l-.396.05zm.233.227h-1.705v.4h1.705v-.4zm-1.505.2c0-.062-.005-.122-.01-.172a1.531 1.531 0 01-.007-.124h-.4c0 .054.005.112.009.159.004.05.008.095.008.137h.4zm-.018-.307a4.158 4.158 0 00-.164-.932l-.384.113c.083.281.133.562.149.842l.4-.023zm-.164-.93a5.491 5.491 0 00-.433-1.065l-.354.186c.17.32.303.638.403.988l.384-.11zm-.433-1.066a3.835 3.835 0 00-.534-.772l-.294.27c.177.194.342.44.475.69l.353-.188zm-.54-.778a3.479 3.479 0 01-.164-.181c-.056-.064-.117-.135-.183-.202l-.283.283c.055.055.107.115.164.18.056.065.117.136.184.203l.283-.283zm-.347-.383a4.315 4.315 0 00-.985-.73l-.193.35c.334.184.631.4.895.663l.283-.283zm-.984-.73c-.316-.175-.647-.342-1.003-.435l-.102.387c.305.08.6.226.91.398l.195-.35zm-.999-.434c-.251-.072-.519-.112-.744-.16l-.084.391c.263.056.482.086.718.153l.11-.384zm-.742-.16a2.939 2.939 0 00-.988-.038l.044.398c.3-.034.572-.033.857.03l.087-.39zm-.978-.039a7.367 7.367 0 00-.877.125l.074.393c.279-.052.563-.102.828-.119l-.025-.399zm-.877.125a4.29 4.29 0 00-1.113.4l.178.358c.34-.17.669-.3 1.01-.365l-.075-.393zm-1.118.403a4.61 4.61 0 00-.854.564l.26.303a4.3 4.3 0 01.782-.514l-.188-.353zm-.858.568c-.181.164-.39.336-.56.543l.31.253c.144-.176.317-.317.519-.5l-.27-.296zm-.553.535c-.364.4-.636.836-.852 1.323l.365.163c.201-.453.451-.852.783-1.217l-.296-.27zM9.16 4.534a4.11 4.11 0 00-.31.988l.394.066c.049-.293.147-.59.281-.891l-.365-.163zm-.309.979c-.056.26-.074.536-.09.775l.398.029c.018-.247.035-.493.083-.72l-.39-.084zm-.09.77a2.994 2.994 0 000 .579l.398-.04a2.593 2.593 0 010-.5l-.398-.04zm0 .57c.017.312.072.623.163.933l.384-.113a3.76 3.76 0 01-.149-.843l-.399.024zm.163.931c.106.372.233.738.437 1.09l.346-.201c-.18-.31-.296-.64-.398-.999l-.385.11zm.436 1.088c.146.255.326.507.502.736l.317-.244a6.256 6.256 0 01-.472-.69l-.347.198zm.5.732c.15.208.343.381.49.528l.282-.283c-.167-.166-.322-.306-.45-.48l-.323.235zm.49.528c.26.26.554.462.857.64l.203-.345a3.8 3.8 0 01-.778-.578l-.283.283zm.857.64c.308.181.638.329.99.42l.101-.386a3.526 3.526 0 01-.888-.379l-.203.345zm.989.42c.269.072.555.126.813.178l.078-.393c-.265-.053-.535-.103-.788-.17l-.103.386zm.814.178c.47.09.938.108 1.395.108v-.4c-.449 0-.886-.018-1.32-.1l-.075.392zm1.395.108c.17 0 .342.004.516.008.174.005.35.01.527.01v-.4c-.17 0-.342-.005-.517-.01-.173-.004-.35-.008-.526-.008v.4zm1.043.017h11.028v-.4H15.447v.4zm11.03 0h.12v-.4h-.122v.4zm-.08-.2V13h.4v-1.705h-.4zm.204 1.505c-4.003-.052-7.97-.052-11.936-.052v.4c3.966 0 7.93 0 11.93.052l.006-.4z" fill="#fff" mask="url(#path-1-inside-1_8_1730)"/><mask id="path-3-inside-2_8_1730" fill="#fff"><path d="M6.123.005V12.93H4.401V1.728H1.88V.005h4.244z"/></mask><path d="M6.123.005V12.93H4.401V1.728H1.88V.005h4.244z" fill="#595959"/><path d="M6.123.005h.2v-.2h-.2v.2zm0 12.925v.2h.2v-.2h-.2zm-1.722 0h-.2v.2h.2v-.2zm0-11.202h.2v-.2h-.2v.2zm-2.522 0h-.2v.2h.2v-.2zm0-1.723v-.2h-.2v.2h.2zm4.044 0V12.93h.4V.005h-.4zm.2 12.725H4.401v.4h1.722v-.4zm-1.522.2V1.728h-.4V12.93h.4zm-.2-11.402H1.88v.4H4.4v-.4zm-2.322.2V.005h-.4v1.723h.4zm-.2-1.523h4.244v-.4H1.878v.4z" fill="#fff" mask="url(#path-3-inside-2_8_1730)"/><mask id="path-5-inside-3_8_1730" fill="#fff"><path d="M0 2.597h3.566v10.247c0 .086-.017.104-.104.104H1.896V4.354c0-.104 0-.104-.104-.104H0V2.597z"/></mask><path d="M0 2.597h3.566v10.247c0 .086-.017.104-.104.104H1.896V4.354c0-.104 0-.104-.104-.104H0V2.597z" fill="#595959"/><path d="M0 2.597v-.2h-.2v.2H0zm3.566 0h.2v-.2h-.2v.2zm-1.67 10.35h-.2v.2h.2v-.2zM0 4.25h-.2v.2H0v-.2zm0-1.453h3.566v-.4H0v.4zm3.366-.2v.088h.4v-.087h-.4zm0 .087v10.16h.4V2.685h-.4zm0 10.16v.01a.14.14 0 01.04-.067.14.14 0 01.067-.039h-.011v.4a.45.45 0 00.095-.009.26.26 0 00.131-.07.26.26 0 00.07-.13.453.453 0 00.008-.096h-.4zm.096-.096H1.897v.4h1.565v-.4zm-1.366.2v-.104h-.4v.104h.4zm0-.105v-8.49h-.4v8.49h.4zm0-8.489c0-.02 0-.054-.003-.082a.247.247 0 00-.068-.15.247.247 0 00-.15-.07c-.03-.002-.062-.002-.083-.002v.4h.038c-.001 0-.012 0-.027-.006a.168.168 0 01-.1-.1.106.106 0 01-.007-.028v.038h.4zm-.304-.304H0v.4h1.792v-.4zM.2 4.25V2.596h-.4V4.25h.4z" fill="#fff" mask="url(#path-5-inside-3_8_1730)"/><mask id="path-7-inside-4_8_1730" fill="#fff"><path d="M17.326 6.39H15.69l-.053-.366a2 2 0 00-.348-.782 2.183 2.183 0 00-.713-.61 1.957 1.957 0 00-.887-.208c-.348 0-.696.07-1.009.243a1.97 1.97 0 00-.8.8 2.17 2.17 0 00-.244.714 2.059 2.059 0 00.696 1.826c.209.192.453.314.73.383.21.052.418.087.627.105.661.07 1.322.034 1.983.034h10.891v1.653h-12.56a5.42 5.42 0 01-.748-.07 7.458 7.458 0 01-.66-.121 3.33 3.33 0 01-1.184-.61 3.766 3.766 0 01-.991-1.165 3.51 3.51 0 01-.366-1.009c-.034-.139-.034-.278-.052-.417-.017-.14-.017-.261-.017-.4.017-.435.104-.87.26-1.27.14-.348.314-.661.558-.94.278-.33.59-.608.956-.835.244-.156.505-.26.783-.348.244-.07.487-.139.748-.156.122-.017.261-.035.383-.035.226.018.452.035.696.07.382.052.73.191 1.06.365a3.734 3.734 0 011.375 1.287c.226.366.4.748.47 1.183.034.209.052.418.087.626-.035 0-.035.018-.035.053z"/></mask><path d="M17.326 6.39H15.69l-.053-.366a2 2 0 00-.348-.782 2.183 2.183 0 00-.713-.61 1.957 1.957 0 00-.887-.208c-.348 0-.696.07-1.009.243a1.97 1.97 0 00-.8.8 2.17 2.17 0 00-.244.714 2.059 2.059 0 00.696 1.826c.209.192.453.314.73.383.21.052.418.087.627.105.661.07 1.322.034 1.983.034h10.891v1.653h-12.56a5.42 5.42 0 01-.748-.07 7.458 7.458 0 01-.66-.121 3.33 3.33 0 01-1.184-.61 3.766 3.766 0 01-.991-1.165 3.51 3.51 0 01-.366-1.009c-.034-.139-.034-.278-.052-.417-.017-.14-.017-.261-.017-.4.017-.435.104-.87.26-1.27.14-.348.314-.661.558-.94.278-.33.59-.608.956-.835.244-.156.505-.26.783-.348.244-.07.487-.139.748-.156.122-.017.261-.035.383-.035.226.018.452.035.696.07.382.052.73.191 1.06.365a3.734 3.734 0 011.375 1.287c.226.366.4.748.47 1.183.034.209.052.418.087.626-.035 0-.035.018-.035.053z" fill="#595959"/><path d="M17.326 6.39v.2h.2v-.2h-.2zm-1.635 0l-.198.028.024.172h.174v-.2zm-.053-.366l.198-.028V5.99l-.198.034zm-.348-.782l.165-.114-.003-.005-.162.119zm-.713-.61l.098-.174-.008-.004-.09.179zm-1.896.035l.097.176-.097-.176zm-.8.8l-.175-.096-.001.002.176.095zm-.244.714l-.198-.028v.003l.198.025zm.053.8l.193-.05V6.93l-.193.051zm.643 1.026l.135-.147-.002-.002-.133.15zm.73.383l.05-.194-.05.194zm.627.105l.021-.2h-.004l-.017.2zm12.873.034h.2v-.2h-.2v.2zm0 1.653v.2h.2v-.2h-.2zm-13.308-.07l-.03.198h.002l.028-.198zm-.66-.121l-.055.192.006.002.048-.194zm-1.184-.61l.125-.155-.001-.002-.124.158zm-.991-1.165l.176-.095-.001-.002-.175.097zm-.366-1.009l.197-.039-.002-.01-.195.05zm-.07-.817l-.2-.008v.008h.2zm.262-1.27l-.186-.075v.002l.186.073zm.556-.94l.151.132.002-.003-.152-.129zm.957-.835l.105.17.003-.001-.108-.169zm.783-.348l-.055-.192-.005.002.06.19zm.748-.156l.013.2.008-.001.007-.001-.028-.198zm.383-.035l.015-.2h-.015v.2zm.696.07l-.029.198h.002l.027-.198zm1.06.365l.095-.176h-.001l-.093.176zm.696.487l-.135.148.005.003.13-.15zm.679.8l.17-.105-.002-.003-.168.108zm.47 1.183l-.198.032v.001l.198-.033zm.087.626v.2h.236l-.04-.232-.196.032zm-.035-.147h-1.635v.4h1.635v-.4zm-1.437.171c-.01-.06-.018-.121-.026-.182l-.027-.183-.396.057c.01.06.018.121.027.182l.026.183.396-.057zm-.054-.371a2.199 2.199 0 00-.38-.862l-.329.227c.148.214.27.448.316.704l.393-.07zm-.383-.867a2.382 2.382 0 00-.777-.665l-.196.349c.261.147.48.32.65.553l.323-.237zm-.785-.67a2.158 2.158 0 00-.977-.229v.4c.282 0 .548.062.798.188l.179-.358zm-.977-.229c-.374 0-.757.075-1.106.269l.194.35a1.86 1.86 0 01.912-.22v-.399zm-1.105.268a2.17 2.17 0 00-.88.88l.351.192a1.77 1.77 0 01.722-.721l-.193-.35zm-.88.88c-.131.244-.227.51-.265.78l.395.057c.031-.216.11-.437.222-.646l-.352-.19zm-.266.784c-.038.303-.019.59.057.877l.387-.103a1.855 1.855 0 01-.047-.724l-.397-.05zm.057.876c.115.442.365.823.704 1.125l.266-.299a1.87 1.87 0 01-.583-.927l-.387.1zm.702 1.123c.236.217.511.353.817.43l.097-.389a1.445 1.445 0 01-.644-.336l-.27.295zm.817.43c.22.054.439.09.659.109l.033-.399a3.722 3.722 0 01-.595-.099l-.097.388zm.654.108c.675.071 1.357.036 2.004.036v-.4c-.675 0-1.315.035-1.962-.033l-.042.397zm2.004.036h10.785v-.4H15.673v.4zm10.786 0h.104v-.4h-.103v.4zm-.096-.2v1.653h.4V8.53h-.4zm.2 1.453h-.088v.4h.088v-.4zm-.087 0H14.003v.4h12.473v-.4zm-12.473 0c-.227 0-.475-.033-.72-.068l-.056.396c.242.035.517.072.776.072v-.4zm-.717-.067a7.26 7.26 0 01-.643-.118l-.097.388c.219.054.455.09.679.125l.06-.395zm-.638-.117a3.13 3.13 0 01-1.112-.572l-.25.312c.369.294.793.516 1.254.645l.108-.385zm-1.113-.574a3.567 3.567 0 01-.94-1.103l-.351.19c.257.478.624.9 1.044 1.228l.247-.315zm-.94-1.105a3.308 3.308 0 01-.344-.951l-.393.078c.074.367.202.734.387 1.067l.35-.194zm-.347-.96a1.184 1.184 0 01-.027-.18c-.006-.06-.011-.14-.02-.214l-.397.05c.008.066.011.124.019.202.007.073.016.155.037.239l.389-.097zm-.047-.394a2.898 2.898 0 01-.016-.375h-.4c0 .138 0 .271.019.425l.397-.05zm-.016-.367c.016-.414.1-.827.247-1.205l-.373-.146a4.133 4.133 0 00-.274 1.335l.4.016zm.246-1.204c.134-.333.297-.625.522-.882l-.301-.263c-.262.3-.447.633-.592.996l.371.149zm.524-.885a3.78 3.78 0 01.91-.794l-.211-.34a4.183 4.183 0 00-1.005.877l.306.257zm.912-.795c.223-.144.465-.241.735-.326l-.12-.381c-.287.09-.567.2-.83.37l.215.337zm.73-.324c.247-.07.47-.134.706-.15l-.026-.399c-.286.02-.55.095-.79.164l.11.385zm.721-.151c.122-.017.249-.033.355-.033v-.4c-.138 0-.29.02-.411.037l.056.396zm.34-.033c.226.017.446.034.682.068l.057-.396a10.305 10.305 0 00-.709-.071l-.03.399zm.684.068c.35.048.676.176.995.344l.186-.354a3.4 3.4 0 00-1.127-.386l-.055.396zm.994.344c.247.132.46.279.654.458l.27-.295a3.522 3.522 0 00-.736-.516l-.188.353zm.659.461c.243.211.457.474.641.758l.336-.217a3.958 3.958 0 00-.716-.843l-.261.302zm.639.755c.217.35.378.708.442 1.109l.395-.063c-.075-.47-.262-.878-.497-1.257l-.34.21zm.442 1.11c.017.1.03.2.043.305.013.104.026.212.044.321l.395-.065c-.017-.1-.03-.2-.042-.305a8.271 8.271 0 00-.045-.322l-.395.066zm.285.393a.248.248 0 00-.102.021.22.22 0 00-.108.103.243.243 0 00-.024.09l-.001.039h.4v-.007a.18.18 0 01-.104.14.153.153 0 01-.061.014v-.4z" fill="#fff" mask="url(#path-7-inside-4_8_1730)"/></svg>