<svg width="27" height="24" fill="none" xmlns="http://www.w3.org/2000/svg"><path d="M17.002 11.867h1.511c.093 0 .2.015.293 0 .2-.016.293-.078.355-.263a.477.477 0 00.03-.123c.448-1.295 1.312-2.144 2.638-2.498.663-.185 1.326-.124 1.958.123.895.34 1.589.94 2.02 1.805.432.863.51 1.758.186 2.667-.386 1.08-1.141 1.851-2.206 2.252-1.187.447-2.297.231-3.3-.54a3.535 3.535 0 01-1.326-1.958c-.062-.216-.139-.278-.355-.278h-3.84c-.216 0-.37.077-.478.278-.17.339-.432.616-.725.848a.259.259 0 00-.077.062c-.108.092-.154.185-.108.323.077.293.17.602.247.895.37 1.357.74 2.714 1.11 4.087 0 .015.016.046.016.061.03.14.123.216.262.232.262.046.509.123.74.246.37.2.679.463.91.833.324.524.386 1.095.154 1.666-.293.724-.817 1.187-1.573 1.372a1.684 1.684 0 01-.956-.062c-.617-.215-1.08-.632-1.326-1.233-.324-.74-.139-1.589.447-2.16.03-.03.077-.061.108-.092.154-.123.185-.293.139-.478l-.416-1.527c-.309-1.125-.617-2.236-.926-3.362-.077-.262-.077-.277-.37-.262a2.399 2.399 0 01-1.295-.339c-.016-.015-.031-.015-.062-.03-.17-.124-.34-.109-.509 0l-1.064.6c-.648.37-1.295.74-1.959 1.096-.015.015-.03.015-.061.03-.185.108-.2.17-.155.355.34 1.296.016 2.406-.894 3.377-.416.448-.91.756-1.496.957a3.149 3.149 0 01-2.251-.047A3.728 3.728 0 01.33 18.853c-.415-.864-.43-1.743-.09-2.638.493-1.28 1.434-2.066 2.775-2.328.972-.185 1.851.061 2.638.648.2.154.37.323.555.493.03.03.061.077.108.108.061.062.138.062.216.03.046-.015.077-.045.123-.06.925-.525 1.866-1.05 2.791-1.59.047-.03.108-.061.154-.092.078-.061.093-.123.047-.216-.016-.03-.016-.046-.031-.077a1.456 1.456 0 01-.2-.617c-.016-.2-.14-.308-.324-.354-.787-.216-1.558-.417-2.345-.633-.709-.2-1.418-.385-2.112-.586-.17-.046-.293-.015-.401.124a2.86 2.86 0 01-.432.431c-.57.432-1.203.54-1.866.278-.74-.293-1.203-.848-1.373-1.62a1.73 1.73 0 01.14-1.079c.308-.678.832-1.125 1.572-1.28.478-.092.94 0 1.357.262.494.309.818.756.987 1.311 0 .016.016.047.016.062.03.247.185.355.416.416 1.403.37 2.791.756 4.18 1.126.277.077.308.062.431-.185a2.25 2.25 0 01.447-.632l.047-.046c.108-.124.123-.2.046-.355-.016-.031-.03-.046-.046-.077-.478-.818-.941-1.62-1.42-2.437-.015-.015-.015-.03-.03-.062-.092-.154-.154-.185-.324-.138-1.28.339-2.375 0-3.33-.88a3.76 3.76 0 01-.895-1.28C3.8 4.064 3.8 3.23 4.125 2.414 4.587 1.257 5.389.47 6.608.131c.848-.247 1.665-.139 2.436.277.987.525 1.65 1.327 1.913 2.422.23.956.061 1.866-.494 2.683-.154.231-.34.447-.555.648l-.108.108c-.154.138-.154.23-.062.416.478.833.956 1.65 1.45 2.483.092.17.154.2.355.154a2.448 2.448 0 011.958.37c.093.062.185.139.278.2.185.14.246.14.416-.015l.185-.185 3.13-3.13.109-.108c.123-.124.154-.247.077-.401-.355-.802-.123-1.65.447-2.206.432-.416.94-.647 1.542-.632.401.016.771.154 1.095.401.34.262.586.586.756.972.17.385.2.786.061 1.187-.23.71-.678 1.234-1.403 1.48-.462.155-.91.155-1.357-.061-.2-.093-.278-.077-.432.092-.4.417-.817.818-1.233 1.234-.787.787-1.558 1.558-2.345 2.329-.138.139-.185.277-.107.447.03.108.061.216.107.308.062.155.17.232.324.232h.555c.448.03.864.03 1.296.03zM9.923 3.63v-.246c-.015-.108-.03-.216-.046-.309-.2-.832-.678-1.419-1.496-1.712a2.598 2.598 0 00-1.372-.092c-.802.154-1.388.586-1.697 1.342-.293.694-.262 1.403.031 2.097.247.601.71 1.002 1.326 1.203a2.614 2.614 0 001.681 0c.633-.2 1.08-.602 1.373-1.188.139-.354.2-.724.2-1.095zM6.037 17.403c-.03-.185-.03-.386-.077-.57-.2-.864-.71-1.466-1.573-1.728a2.616 2.616 0 00-1.681.046c-.725.263-1.203.771-1.419 1.512a2.464 2.464 0 00-.03 1.295c.2.895.74 1.512 1.634 1.758.632.185 1.25.108 1.85-.17.54-.246.91-.663 1.126-1.233a2.89 2.89 0 00.17-.91zm19-4.966c-.016-.123-.016-.246-.031-.37-.108-.74-.463-1.31-1.11-1.68-.51-.294-1.065-.386-1.65-.325-.787.093-1.389.494-1.759 1.188-.34.632-.37 1.31-.17 1.99.216.74.71 1.248 1.435 1.495.37.123.77.17 1.156.123.71-.077 1.28-.385 1.697-.987.308-.431.416-.91.431-1.434zm-12.908 1.141h.2c.046 0 .108-.015.154-.015a1.377 1.377 0 001.157-1.095c.077-.37.062-.725-.062-1.08-.154-.462-.478-.755-.956-.879a1.79 1.79 0 00-.987 0c-.524.14-.879.463-1.033.987a1.816 1.816 0 00-.046.91c.108.525.4.895.925 1.095.2.047.416.093.648.077zm6.57-8.281c.015.046 0 .093.015.139.03.385.262.678.632.755.108.031.231.031.34.031.4-.015.693-.231.801-.586.062-.216.077-.432.016-.647a.768.768 0 00-.571-.571 1.027 1.027 0 00-.432-.03c-.432.045-.694.277-.77.709-.032.061-.032.138-.032.2zm-3.64 17.534c.046-.015.092 0 .139-.015.339-.046.601-.2.709-.54.077-.231.077-.462.015-.71-.092-.292-.277-.477-.57-.554a1.303 1.303 0 00-.602 0c-.308.077-.509.277-.555.586a1.66 1.66 0 00-.015.478c.03.385.293.663.678.724a.422.422 0 00.2.031zM2.644 8.937c-.092 0-.17 0-.231.015-.34.03-.586.231-.663.555a1.325 1.325 0 000 .694c.077.262.247.447.524.509.216.062.417.062.632.015.324-.077.525-.277.587-.601.03-.185.03-.355 0-.54-.062-.324-.263-.54-.587-.601-.092-.031-.185-.031-.262-.046z" fill="#595959"/></svg>