<svg width="30" height="24" fill="none" xmlns="http://www.w3.org/2000/svg"><path d="M14.39 24c-.276-.032-.569-.049-.845-.098-2.618-.341-4.91-1.382-6.83-3.203-1.837-1.707-2.991-3.805-3.528-6.26a8.586 8.586 0 01-.179-1.447 64.316 64.316 0 01-.049-2.504c0-.488.342-.813.83-.83 1.122-.016 2.244-.016 3.382-.016 2.943 0 5.886-.016 8.845-.016 3.366 0 6.716.016 10.082 0 .374 0 .813.358.813.764 0 .65.032 1.285.016 1.935a11.37 11.37 0 01-1.04 4.57c-1.61 3.447-4.245 5.69-7.92 6.715a10.35 10.35 0 01-2.325.374c-.048 0-.097.016-.146.016H14.39zM3.968 10.634V12c0 1.073.113 2.146.439 3.17.748 2.407 2.195 4.326 4.195 5.838.065.049.13.081.211.13 0-.097.016-.179.016-.26.017-1.268.05-2.537.065-3.821.017-.472.05-.943.18-1.398.796-2.911 3.544-4.846 6.552-4.488 1.789.211 3.203 1.057 4.26 2.52.748 1.024 1.106 2.195 1.122 3.447l.049 3.594c0 .13.016.26.016.406.082-.049.163-.097.228-.146 1.252-.992 2.39-2.098 3.17-3.512.684-1.22 1.171-2.52 1.35-3.903.13-.975.114-1.951.114-2.927 0-.016-.016-.016-.016-.032-7.317.016-14.634.016-21.951.016zm16.048 8.455h-.048v-2.08c0-.668-.114-1.302-.423-1.903-.862-1.675-2.179-2.732-4.082-2.943-1.69-.18-3.121.39-4.26 1.642-.813.878-1.284 1.935-1.284 3.154l-.049 4.716c0 .097.049.114.114.146 1.024.488 2.097.846 3.236 1.008 1.138.163 2.276.163 3.398 0a11.149 11.149 0 003.285-1.008c.113-.049.146-.114.146-.228-.033-.813-.033-1.658-.033-2.504zM28.683 0c.146.081.276.146.423.228.471.276.78.65.78 1.235 0 1.529.016 3.057.033 4.586v1.756c0 .114-.05.228-.082.341-.048.114-.113.212-.178.326-.293.406-.667.65-1.171.65-1.366 0-2.732.032-4.098.032-2.764 0-5.528.017-8.309 0-4.536 0-9.09-.016-13.626-.016-.341 0-.683-.016-1.024-.032-.488 0-.846-.244-1.122-.618-.195-.26-.325-.553-.293-.894C.033 7.333 0 7.056 0 6.78V1.772a.468.468 0 00.016-.211C0 .943.326.521.83.228.96.146 1.09.08 1.22 0h27.464zm-13.74 1.04v-.016H7.951c-2.162 0-4.325.033-6.488.033-.292 0-.406.081-.422.39a10.46 10.46 0 00-.05 1.008v4.293c0 .325.033.634.066.96.032.243.146.357.39.39.146.016.293.016.44.016 1.87.016 3.739.049 5.609.049 6.406 0 12.813-.017 19.22-.033.569 0 1.138-.016 1.707-.049.26-.016.39-.13.423-.39a2.42 2.42 0 00.032-.341V1.837c0-.178-.032-.341-.065-.52-.032-.179-.146-.26-.341-.26-.326 0-.635-.016-.96-.016H14.943z" fill="#595959"/><path d="M14.91 21.008c-1.804.114-3.316-1.415-3.642-2.748-.276-1.154-.195-2.276.553-3.268.57-.732 1.236-1.317 2.163-1.512 1.398-.293 2.65-.017 3.675 1.04.536.553.91 1.187 1.04 1.968.342 1.967-.878 3.935-2.78 4.406-.325.082-.667.082-1.008.114zm2.83-3.821c-.033-.293-.016-.585-.098-.862a2.658 2.658 0 00-.91-1.317c-.374-.292-.78-.553-1.269-.601-.325-.033-.666-.017-1.008-.017-.13 0-.26.033-.39.082-1.333.455-2.114 1.74-1.935 3.138.211 1.496 1.659 2.569 3.155 2.374 1.154-.13 2.585-1.252 2.455-2.797zM25.22 5.3v-.13c.016-.438.244-.666.683-.715.114-.016.227-.016.357 0 .423.05.586.195.667.602.033.163.033.325 0 .488-.098.504-.618.764-1.154.601-.407-.113-.553-.325-.553-.845z" fill="#595959"/><path d="M17.285 17.22c0 1.268-1.074 2.325-2.342 2.325-1.284 0-2.341-1.074-2.341-2.342s1.073-2.341 2.357-2.341c1.269-.017 2.326 1.057 2.326 2.357zm-.992-.017c-.017-.764-.634-1.382-1.382-1.366-.683.017-1.318.683-1.318 1.366.017.732.635 1.317 1.366 1.334.732.016 1.382-.78 1.334-1.334z" fill="#595959"/></svg>