<svg width="24" height="24" fill="none" xmlns="http://www.w3.org/2000/svg"><path d="M23.36 12.43c.127.183.256.33.365.513.165.256.238.549.238.86v2.82c0 .512-.201.933-.567 1.3-.018.018-.055.036-.092.072.037.019.074.037.092.074.366.366.567.805.567 1.318v2.764A1.844 1.844 0 0122.114 24H1.867A1.86 1.86 0 010 22.151c0-.879.018-1.74 0-2.618 0-.604.183-1.117.64-1.538l-.054-.055A1.814 1.814 0 010 16.587v-2.71c0-.549.201-1.006.604-1.39.018-.02.018-.02.037-.02-.11-.127-.202-.237-.293-.347A1.785 1.785 0 010 11.076v-4.65c0-.367.092-.714.256-1.044C.99 3.936 1.703 2.49 2.435 1.043A1.798 1.798 0 013.77.037C3.9.018 4.01 0 4.137 0h15.726c.787 0 1.354.366 1.72 1.062l2.142 4.284c.183.366.275.732.275 1.153v4.485a1.999 1.999 0 01-.64 1.446zM.933 6.444h22.132c0-.238-.055-.44-.146-.64-.732-1.447-1.446-2.912-2.179-4.358-.183-.348-.457-.53-.86-.53H4.119c-.384 0-.677.182-.86.53a6.687 6.687 0 00-.257.513c-.64 1.281-1.281 2.544-1.904 3.826a1.18 1.18 0 00-.164.659zm22.114.934H.915v3.642c0 .549.403.951.952.951h20.376c.494-.073.805-.457.805-.951V7.378zM11.99 23.048h10.087c.567 0 .97-.403.97-.97v-2.673c0-.568-.384-.97-.97-.97H1.886c-.568 0-.97.402-.97.97v2.838c.073.494.457.805.951.805h10.124zm0-5.529h10.252c.494-.073.805-.457.805-.951v-2.673c0-.586-.384-.97-.988-.97H1.904c-.586 0-.989.384-.989.988v2.654c0 .605.385.99.989.99 3.368-.037 6.718-.038 10.087-.038z" fill="#595959"/><path d="M10.142 2.764H4.174a.477.477 0 01-.494-.476c0-.238.201-.439.439-.457h11.954c.11 0 .22.018.311.073.184.091.257.311.202.512a.451.451 0 01-.44.348h-6.004zm8.75 0h-.896a.458.458 0 110-.915h1.812c.274 0 .476.201.476.458 0 .256-.201.457-.494.457h-.898zm.934 8.293a1.387 1.387 0 01-1.391-1.373c0-.769.622-1.391 1.373-1.391.768 0 1.39.622 1.39 1.373a1.364 1.364 0 01-1.372 1.391zm0-.824a.54.54 0 00.55-.549.54.54 0 00-.55-.549.54.54 0 00-.55.55c0 .31.239.548.55.548zm-4.156-.091h-1.372a.458.458 0 01-.458-.403c-.018-.238.128-.458.366-.494h2.856a.42.42 0 01.403.256c.073.183.055.348-.074.494a.46.46 0 01-.366.165c-.44-.018-.897-.018-1.354-.018zM2.764 9.666v-.458c0-.256.202-.457.458-.457s.457.2.457.457v.934a.453.453 0 01-.457.458.453.453 0 01-.458-.458v-.476zm9.226.018v-.457c0-.257.202-.458.458-.458.257 0 .458.201.458.458v.933a.453.453 0 01-.458.458.453.453 0 01-.457-.458v-.476zm-2.306 0v-.457a.48.48 0 01.458-.476c.256 0 .457.2.457.476v.896a.458.458 0 11-.915 0v-.439zm-2.307-.018v-.458c0-.256.202-.457.458-.457s.458.2.458.457v.934a.453.453 0 01-.458.458.453.453 0 01-.458-.458v-.476zm-1.391.018v.458a.453.453 0 01-.458.458.453.453 0 01-.457-.458v-.915c0-.257.201-.458.457-.458.257 0 .458.201.458.458.018.146 0 .31 0 .457zm15.213 11.057c0 .77-.623 1.392-1.373 1.392a1.39 1.39 0 01-1.391-1.392c0-.768.622-1.39 1.373-1.39a1.4 1.4 0 011.39 1.39zm-1.373.586c.33 0 .567-.256.586-.567 0-.33-.238-.586-.568-.586a.575.575 0 00-.586.567.553.553 0 00.568.586zM15.67 21.2h-1.372a.458.458 0 01-.458-.404c-.018-.238.128-.457.366-.494h2.856c.201 0 .348.092.42.275.074.183.056.347-.072.494a.433.433 0 01-.348.146c-.476-.018-.934-.018-1.391-.018zm-3.68-.459v-.457c0-.256.202-.458.458-.458.257 0 .458.201.458.458v.933a.453.453 0 01-.458.458.453.453 0 01-.457-.458v-.476zm-1.39 0v.458a.458.458 0 11-.916 0v-.915c0-.256.201-.458.458-.458.256 0 .457.201.457.458v.457zm-3.223 0v-.457c0-.256.202-.458.458-.458s.458.201.458.458v.933a.453.453 0 01-.458.458.453.453 0 01-.458-.458v-.476zm-1.391.019v.457a.453.453 0 01-.458.458.453.453 0 01-.457-.458v-.915a.458.458 0 11.915.018c.018.128 0 .275 0 .44zm-2.288-.019v.458a.453.453 0 01-.458.458.453.453 0 01-.457-.458v-.915c0-.256.201-.458.457-.458.257 0 .458.201.458.458v.457zm16.128-4.137a1.387 1.387 0 01-1.391-1.373c0-.769.622-1.391 1.373-1.391.768 0 1.39.622 1.39 1.373 0 .769-.603 1.391-1.372 1.391zm.55-1.391a.55.55 0 00-.55-.55.54.54 0 00-.55.55c0 .311.257.549.55.549a.54.54 0 00.55-.55zm-4.706.457h-1.372a.459.459 0 01-.458-.42.46.46 0 01.366-.495h2.856c.22 0 .403.147.457.366a.492.492 0 01-.256.513c-.073.037-.146.037-.22.037h-1.372zm-3.68-.457v-.458c0-.256.202-.458.458-.458.257 0 .458.202.458.458v.934a.453.453 0 01-.458.457.453.453 0 01-.457-.457v-.476zm-1.39 0v.458a.458.458 0 11-.916 0v-.916c0-.256.201-.458.458-.458.256 0 .457.202.457.458v.458zm-2.307.018v.458a.453.453 0 01-.458.457.453.453 0 01-.458-.457v-.915a.458.458 0 11.915.018v.44zm-2.307-.018v.458a.453.453 0 01-.458.457.453.453 0 01-.457-.457v-.916a.48.48 0 01.457-.476c.257 0 .458.201.458.476.018.165 0 .311 0 .458zm-2.288 0v.458a.458.458 0 11-.915 0v-.916c0-.256.201-.458.457-.458.257 0 .458.202.458.458v.458z" fill="#595959"/></svg>