<svg width="24" height="24" fill="none" xmlns="http://www.w3.org/2000/svg"><path d="M16.484 7.834a.294.294 0 01.109-.048l.021-.005c.005 0 .006-.001.01-.003l.33-.11v.347c0 .163-.002.323-.003.48-.003.309-.006.609.003.907a.983.983 0 01-.164.608c.701-.103 1.404-.14 2.11-.037V4.791c0-.403-.098-.794-.281-1.149l-.002-.003h0c-.375-.75-.979-1.296-1.716-1.723l-.003-.002h0C15.566 1.117 14.082.708 12.528.47l3.956 7.365zm0 0c-.996.58-2.102.893-3.255 1.119h0c-2.4.477-4.8.477-7.203.04h-.001c-.966-.173-1.912-.436-2.803-.842L3.22 8.15a8.935 8.935 0 01-.56-.282l-.164-.087-.366-.193v.414l-.005.039v.003c-.003.022-.009.06-.009.106 0 .145.002.286.003.426.003.274.006.542-.003.814m14.368-1.556L2.116 9.39m0 0c-.016.346.102.672.392.892.282.228.592.468.934.654 1.016.556 2.121.844 3.236 1.035h.001c1.825.3 3.668.327 5.513 0h0l.003-.001c.15-.029.302-.06.455-.093a7.725 7.725 0 00-1.7 2.125.091.091 0 01-.008.006c-.66.125-1.338.1-2.036.073h0a17.698 17.698 0 01-4.24-.676h-.001c-.7-.198-1.37-.447-2.01-.775l-.017-.008-.018-.006s0 0 0 0l-.007-.003a.665.665 0 01-.013-.006l-.017-.008a.648.648 0 00-.116-.042l-.31-.078v.315l-.001.003-.007.031a.363.363 0 00-.006.065c0 .15.002.295.003.44.003.283.006.56-.003.841-.017.416.165.711.432.948.503.459 1.1.754 1.688.987h0c1.114.44 2.28.687 3.457.782M2.116 9.39l-.031 12.525c.91.585 1.917.952 2.976 1.217h0c2.264.57 4.57.663 6.897.397h.001l.149-.018a3.65 3.65 0 01-.283-.34l-.003-.003h0a30.45 30.45 0 01-.657-1.006c-.1-.158-.2-.315-.3-.469a5.611 5.611 0 01-.813.077h-.005c-.654 0-1.308 0-1.963-.054-1.444-.11-2.857-.396-4.205-.988-.507-.22-1.013-.49-1.424-.929a1.042 1.042 0 01-.325-.815c.008-.282.006-.553.003-.828-.002-.14-.003-.281-.003-.425 0-.045.005-.084.008-.106v-.003a.28.28 0 00.005-.039v-.399l.359.174c2.37 1.147 4.87 1.534 7.498 1.523-.072-.614-.134-1.247-.034-1.899l-.546-.014a27.824 27.824 0 01-1.7-.076m0 0s0 0 0 0l.021-.25-.02.25s0 0 0 0zM.646 20.506c.35.587.854 1.032 1.439 1.409l-1.439-1.41zm0 0a2.64 2.64 0 01-.381-1.35V9.05c0-.377.002-.755.004-1.134.005-.952.01-1.909-.018-2.864-.025-1.055.404-1.861 1.18-2.561.716-.64 1.592-1.03 2.524-1.362h.002C5.113.707 6.327.482 7.565.348a20.04 20.04 0 014.962.12L.647 20.506zm12.78-8.93c.048-.032.092-.065.14-.1l.101-.074c-.106.021-.21.044-.314.066l-.006.001-.276.06.354.047zm0 0c-.084.06-.166.123-.246.186l.245-.186zM2.405 12.8h.25a.476.476 0 01-.012.106h-.001v-.012.011a44.986 44.986 0 01-.102-.051c-.017-.005-.033-.013-.05-.021a.453.453 0 00-.085-.033zm0 0l-.023.094-.037.149c.003 0 .01.003.028.011l.007.003.013.006-.001-.169c0-.012.003-.024.006-.037.003-.017.007-.035.007-.057zm6.878-5.367h.002c1.248 0 2.258-.081 3.256-.259h.002c1.085-.204 2.175-.492 3.175-1.033.373-.193.747-.428 1.035-.807a.872.872 0 00.208-.526.816.816 0 00-.211-.536 2.856 2.856 0 00-.526-.498h0l-.006-.004c-.469-.342-.989-.58-1.496-.771h0l-.002-.001c-1.236-.453-2.523-.685-3.828-.794h-.002c-1.77-.136-3.53-.028-5.264.396-.982.232-1.944.564-2.8 1.167h0l-.002.001a3.066 3.066 0 00-.542.526h0l-.005.005a.753.753 0 00-.175.472.75.75 0 00.175.472h0l.005.006c.15.177.327.37.54.524.554.411 1.186.676 1.814.881 1.577.562 3.217.766 4.647.78zm4.702 11.143h0v.001c.173 1.065.736 1.912 1.573 2.55h0c1.687 1.284 3.934.958 5.304-.711h0c1.365-1.667 1.061-3.843-.29-5.137l-.18-.172-.172.179c-.311.321-.622.642-.932.956l-.078-.795-.332-3.423.5.062c1.191.146 2.374.292 3.568.432l-.113.112c-.316.313-.628.622-.933.936l-.166.17.163.175c1.336 1.427 1.911 3.072 1.615 4.99-.245 1.559-1.027 2.805-2.293 3.735h0c-2.497 1.853-6.025 1.34-7.932-1.134-1.834-2.383-1.43-5.527.314-7.368l.007.008.026.026.004.003.003.004.003.003.004.003.013.013.003.004.003.003.004.003.003.003.003.004.003.003.004.003.003.003.003.004.004.003.003.003.003.004.003.003.004.003.003.003.003.004.004.003.003.003.003.004.003.003.004.003.003.004.003.003.003.003.004.003.003.004.003.003.004.003.003.004.003.003.003.003.004.003.003.004.003.003.004.003.003.003.003.004.003.003.004.003.003.004.003.003.004.003.003.003.003.004.003.003.004.003.003.003.003.004.003.003.004.003.003.003.003.004.004.003.003.003.003.004.003.003.004.003.003.003.003.004.003.003.004.003.003.004.003.003.003.003.004.003.003.004.003.003.004.003.003.003.003.004.003.003.004.003.003.004.003.003.003.003.004.003.003.004.003.003.004.003.003.003.003.004.003.003.004.003.003.003.003.004.003.003.004.003.003.004.003.003.004.003.003.003.003.004.003.003.004.003.003.003.003.004.003.003.004.003.003.003.003.004.003.003.004.003.003.003.003.004.003.003.004.003.003.003.003.004.004.003.003.003.003.004.003.003.004.003.003.003.003.004.003.003.004.003.003.003.003.004.003.003.004.003.003.003.003.004.003.003.004.003.003.003.003.004.003.003.004.003.003.004.003.003.003.003.004.003.003.004.003.003.003.003.004.003.003.004.003.003.003.003.004.003.003.004.003.003.004.003.003.003.003.004.003.003.004.003.003.003.003.004.003.003.004.003.003.003.003.004.003.003.004.003.003.003.003.004.003.003.004.003.003.003.003.004.003.003.004.003.003.003.003.004.003.003.004.003.003.003.003.004.003.003.004.003.003.003.003.004.003.003.004.003.003.003.003.004.003.003.004.003.003.003.003.004.003.003.004.003.003.003.003.004.003.003.003.003.004.003.003.004.003.003.003.003.004.003.003.004.003.003.003.003.004.003.003.004.003.003.003.003.004.003.003.004.003.003.003.003.004.003.003.004.003.003.003.003.004.003.003.004.003.003.003.003.004.003.003.004.003.003.003.003.004.003.003.003.003.004.003.003.004.003.003.003.003.004.003.003.004.003.003.003.003.004.003.003.004.003.003.003.003.004.003.003.004.003.003.003.003.003.003.004.004.003.003.003.003.003.003.004.003.003.004.003.003.003.003.004.003.003.004.003.003.003.003.004.003.003.004.003.003.003.003.004.003.003.004.003.003.003.003.004.003.003.004.003.003.003.003.003.003.004.004.003.003.003.003.004.003.003.003.003.004.003.003.003.003.004.003.003.004.003.003.003.003.004.003.003.003.003.004.003.003.004.003.003.003.003.004.003.003.004.003.003.003.003.004.003.003.003.003.004.003.003.004.003.003.003.003.004.003.003.003.003.004.003.003.004.003.003.003.003.004.003.003.004.003.003.003.003.004.003.003.003.003.004.003.003.004.003.003.003.003.004.003.003.003.003.004.003.003.004.003.003.004.003.003.003.003.004.003.003.003.003.004.003.003.003.003.004.003.003.004.003.003.003.003.004.003.003.004.003.003.003.003.004.003.003.003.003.004.003.003.003.003.004.003.003.004.003.003.003.003.004.003.003.004.003.003.003.003.003.003.004.003.003.004.003.003.003.003.004.003.003.004.003.003.003.003.004.003.003.004.003.003.003.003.003.003.004.003.003.004.003.003.003.003.004.003.003.004.003.003.003.003.004.003.003.004.003.003.003.003.003.003.004.003.003.004.003.003.003.003.004.003.003.004.003.003.003.003.004.003.003.004.003.003.003.003.004.003.003.003.003.004.003.003.003.003.004.003.003.004.003.002.003c-.755.87-1.125 1.908-.936 3.12z" fill="#595959" stroke="#fff" stroke-width=".5"/></svg>