<svg width="25" height="24" fill="none" xmlns="http://www.w3.org/2000/svg"><path d="M12.001 21.529v-.164c.017-.41.066-.803.066-1.213 0-.262.082-.36.344-.36.262 0 .328.114.312.343-.017.853 0 1.69 0 2.542H8.558v-2.214c-.721-.295-1.393-.59-2.148-.901-.475.442-1 .918-1.475 1.344-.541-.508-1.066-1-1.607-1.492-.524-.475-1.05-.967-1.574-1.443.46-.59.853-1.065 1.197-1.574a.567.567 0 00.066-.459c-.23-.655-.509-1.295-.722-1.95-.065-.214-.147-.28-.377-.28-.623.017-1.262 0-1.918 0v-4.72c.623 0 1.246-.016 1.869 0 .279 0 .41-.066.492-.344.164-.492.393-.951.623-1.427.098-.196.082-.311-.066-.459-.377-.41-.737-.836-1.147-1.295 1.049-.984 2.098-1.967 3.164-2.984.328.262.77.656 1.246 1 .098.082.295.099.426.05.558-.197 1.099-.427 1.64-.656.114-.05.246-.214.246-.328.032-.558.016-1.115.016-1.689h4.263V2.97h-.82V1.724H9.394v1.64C8.33 3.79 7.312 4.2 6.246 4.625c-.377-.312-.852-.689-1.262-1.033-.672.64-1.312 1.262-1.984 1.902.345.393.689.77 1.017 1.18a.508.508 0 01.065.377c-.41.902-.836 1.804-1.295 2.787H.87v2.984c.557 0 1.098.017 1.64 0 .278-.016.41.05.475.345.23 1.065.606 2.098 1.213 3.05-.393.524-.803 1.032-1.213 1.557.656.623 1.311 1.23 2 1.869.377-.345.869-.787 1.279-1.148 1.066.443 2.066.869 3.148 1.328v1.59c0 .131.065.279.098.41h.246l2.131.05c.033 0 .05-.05.082-.083 0-.016 0-.049.017-.065a.62.62 0 00.016-.197z" fill="#595959"/><path d="M14.362 16.709c.328.459.655.934.983 1.393.492.738 1 1.46 1.427 2.099.54 0 1.016-.082 1.443.016 1.098.23 1.704 1.378 1.377 2.443-.328 1.05-1.509 1.607-2.542 1.213-1.033-.393-1.54-1.623-1.033-2.606.148-.295.115-.476-.065-.722-.492-.672-.967-1.36-1.443-2.033a21.78 21.78 0 00-.557-.737c-.131-.05-.262-.164-.377-.164-1.05-.017-2.099-.017-3.148-.033-.967-.148-1.886-.41-2.738-.902-3.558-2.148-4.033-6.804-.951-9.722 1.148-1.099 2.508-1.722 4.115-1.804h.263v.804c-.394.065-.804.115-1.197.197-2.558.606-4.41 3-4.345 5.607.05 2.098 1.574 4 3.77 4.656.312.098.64.114.952.18.246.033.508.082.754.082 1.115.033 2.213.033 3.312.033zm4.46 5.361c0-.607-.46-1.066-1.067-1.066-.59 0-1.082.492-1.065 1.066a1.053 1.053 0 001.049 1.033c.607.016 1.082-.426 1.082-1.033z" fill="#595959"/><path d="M15.69 8.462c.442-.656.885-1.311 1.311-1.967.36-.918 1.099-1.033 1.951-.918.246.032.41-.017.541-.279a1.889 1.889 0 012.263-.918c.885.279 1.41 1.115 1.311 2.066-.082.869-.82 1.606-1.688 1.688-.951.099-1.755-.426-2.05-1.328a2.183 2.183 0 01-.082-.311c-.95-.23-1.197-.099-1.688.82-.427.623-.853 1.23-1.263 1.869-.131.213-.279.295-.524.278-1.59-.016-3.181-.016-4.771 0-1.394.033-2.378 1.427-1.968 2.738.263.87 1.099 1.492 2.033 1.525.279.016.574 0 .885 0v.787c-1.836.377-3.377-.607-3.803-2.23-.426-1.59.672-3.262 2.328-3.623.098-.016.18-.05.279-.066h4.525c.13-.032.278-.098.41-.13zm5.525-3.295A1.03 1.03 0 0020.133 6.2c0 .574.491 1.082 1.065 1.082a1.09 1.09 0 001.066-1.033c0-.59-.46-1.082-1.05-1.082zm-4.049 11.345c-.443-.59-.853-1.213-1.328-1.754-.164-.18-.525-.197-.836-.295v-.738c.36 0 .72-.016 1.082.016.098 0 .196.132.262.23.442.557.869 1.115 1.311 1.672.378.607.886.82 1.607.623.115-.033.213-.213.295-.344a1.933 1.933 0 012.771-.541 1.924 1.924 0 01.328 2.82c-.935 1.098-2.738.787-3.263-.574-.049-.131-.082-.279-.147-.459-.345 0-.672-.016-1.017 0-.393.033-.688-.05-.869-.426-.049-.082-.13-.148-.196-.23zm2.95.41c0 .59.476 1.066 1.066 1.066.59 0 1.066-.492 1.066-1.082 0-.558-.492-1.033-1.05-1.05a1.1 1.1 0 00-1.081 1.066z" fill="#595959"/><path d="M18.97 12.02h-3.1v-.885h2.935c.492 0 1 0 1.492-.017.066-.016.148-.016.213-.033.213-.72.574-1.311 1.345-1.573a1.937 1.937 0 012.377 1.082c.393.934.016 2-.869 2.459-.902.459-2.017.197-2.508-.672-.197-.345-.41-.41-.738-.394-.377.033-.754.017-1.148.033zm3.508.393c.59 0 1.065-.491 1.065-1.065-.016-.574-.524-1.066-1.098-1.05-.574.017-1.017.476-1.033 1.066 0 .59.46 1.05 1.066 1.05zM15.756 5.33c-.098.1-.213.181-.279.296-.197.328-.475.426-.869.393-.459-.032-.656-.278-.475-.705.033-.082.18-.114.279-.164.18-.098.36-.196.524-.278.59-.656 1.18-1.328 1.754-2 .082-.099.066-.296.033-.443-.246-1.099.36-2.115 1.46-2.377 1.016-.246 2.049.41 2.295 1.475.164.77-.066 1.443-.689 1.935s-1.312.557-2.033.213c-.115-.066-.23-.131-.393-.23-.525.623-1.066 1.246-1.607 1.886zm2.82-2.344a1.054 1.054 0 001.098-1.033c.017-.573-.492-1.082-1.049-1.098-.59 0-1.05.443-1.066 1.016-.016.64.41 1.099 1.017 1.115zm-5.837 19.691v-2.542c0-.23-.05-.344-.312-.344-.278 0-.344.099-.344.36 0 .41-.049.804-.065 1.214v-1.623h.836v2.836c-.033.033-.082.066-.115.099zm-.754-.837c-.033.033-.05.082-.082.082l-2.132-.049c.738-.016 1.476-.033 2.214-.033z" fill="#595959"/><path d="M20.51 11.102c-.066.016-.148.016-.213.033.082-.017.147-.033.213-.033zm-7.656 2.639H14.1v.804h-1.246v-.804zm2.098-2.557v.803h-.803v-.803h.803zm-2.951.786v-.803h.803v.804h-.803zm0-6v-.803h.803v.803h-.803zm3.689 2.492c-.131.033-.279.082-.41.082h-4.525c.147-.033.311-.098.459-.098a407.2 407.2 0 004.476.016zm-1.328 8.247c-1.099 0-2.213 0-3.312-.017-.246 0-.508-.049-.754-.082h3.738c.115 0 .23.066.328.099zm-3.919.852c1.05 0 2.099 0 3.148.033.131 0 .263.115.377.164-.164-.033-.311-.082-.475-.082-.886 0-1.77 0-2.656-.016-.131 0-.262-.066-.394-.099z" fill="#595959"/></svg>