<svg width="30" height="24" fill="none" xmlns="http://www.w3.org/2000/svg"><path d="M.016 24c0-.048-.016-.112-.016-.16v-1.102h20.28a6.896 6.896 0 01-.112-.558c-.368-1.677-.719-3.37-1.086-5.046-.048-.192-.08-.384-.128-.575-.08-.4.208-.75.607-.767h.287c-.095-.207-.207-.399-.287-.59a6.958 6.958 0 01-.559-2.124 9.223 9.223 0 01-.032-1.757c.048-.67.16-1.341.303-1.996.096-.415.192-.83.304-1.245.144-.511.67-.655 1.07-.32.287.24.559.495.846.735.016-.144.032-.303.064-.447.128-.894.4-1.74.846-2.539a6.602 6.602 0 011.134-1.517c.192-.192.431-.255.687-.144.095.048.191.112.271.192a6.96 6.96 0 011.341 1.996 7.34 7.34 0 01.543 1.74c0 .016.016.048.016.08.08-.064.16-.143.24-.207.24-.192.495-.384.734-.575.367-.272.863-.112.99.32.224.734.4 1.484.495 2.25.064.512.096 1.023.144 1.55 0 .032.016.063.016.111v.783c0 .032-.016.08-.016.112-.016.303-.032.59-.064.894a8.21 8.21 0 01-.543 2.22c-.064.16-.127.319-.207.478h.207c.304 0 .543.208.607.495 0 .016.016.048.016.064v.16c-.016.08-.048.144-.064.224l-1.15 5.317-.143.67h1.357V24H.016zm20.36-6.93c0 .016 0 .032.015.048.112.543.224 1.07.352 1.613.287 1.309.574 2.618.846 3.928.016.064.032.08.096.08h4.662c.064 0 .096-.016.096-.08l.24-1.102c.271-1.278.558-2.555.83-3.832.048-.208.096-.432.144-.655h-7.282zm2.953-1.278h3.386c.032 0 .08-.031.095-.063a6.69 6.69 0 00.943-3.114c.063-1.102.015-2.188-.208-3.274-.048-.207-.08-.399-.128-.622-.032.016-.048.032-.064.047-.798.64-1.549 1.342-2.187 2.14a9.464 9.464 0 00-1.182 1.868c-.303.64-.463 1.326-.575 2.028-.032.336-.048.655-.08.99zm-2.73-6.37c-.016 0-.032.015-.048.015-.08.48-.176.958-.24 1.437a7.583 7.583 0 00.112 2.874c.176.735.463 1.406.942 1.98.016.033.064.064.096.064h.639c.016-.175.016-.35.032-.51.08-.879.255-1.741.575-2.571.016-.032.016-.08 0-.128a17.888 17.888 0 00-.352-.815 6.483 6.483 0 00-.878-1.373l-.878-.974zM24 5.428a.28.28 0 00-.064.08c-.734.83-1.07 1.836-1.15 2.922-.032.511-.032 1.022-.032 1.533 0 .048.016.112.048.144.144.255.304.495.463.75.064.112.128.224.192.352.032-.048.064-.08.08-.128a13.89 13.89 0 011.677-2.06c.032-.032.063-.08.063-.128-.032-.814-.175-1.613-.527-2.363A6.082 6.082 0 0024 5.429z" fill="#595959"/><path d="M26.523 4.583c-.016-.032-.032-.048-.048-.064a8.57 8.57 0 00-1.166-1.47.181.181 0 01-.047-.127V1.485c-.017-.144-.096-.224-.24-.224H1.581c-.224 0-.304.064-.304.304v15.792c0 .048 0 .112.016.16.016.08.08.128.176.144h16.304c.111 0 .16.016.175.143.064.352.144.687.224 1.038 0 .032 0 .064.016.096H1.565c-.59 0-1.054-.223-1.357-.75-.16-.272-.208-.56-.208-.863V1.66c0-.319.032-.622.192-.894C.447.303.83.064 1.357.016 1.437 0 1.517 0 1.613 0h23.313c.336 0 .639.048.926.24.447.303.671.734.687 1.261.016 1.006 0 2.012 0 3.018-.016.016-.016.032-.016.064zM7.585 21.477v-1.261h10.762c.08 0 .112.015.144.111l.24 1.15H7.585z" fill="#595959"/><path d="M12.008 6.355l3.752 3.753c-.575.048-1.165.096-1.756.16.303.686.59 1.373.894 2.043-.255.112-.495.208-.734.32-.272-.687-.543-1.358-.815-2.044l-1.325 1.325c-.016-1.868-.016-3.704-.016-5.557z" fill="#595959"/></svg>