<svg width="23" height="24" fill="none" xmlns="http://www.w3.org/2000/svg"><path d="M22.433 6.393h0v.003c-.012.267-.176.418-.43.56-.627.335-1.258.67-1.89 1.006l-.001.001h0l-1.893 1.009h0c-.706.38-1.414.758-2.121 1.136-1.416.757-2.833 1.514-4.236 2.284a1.227 1.227 0 01-.595.174c-.188 0-.38-.056-.595-.174h0c-2.865-1.557-5.75-3.092-8.63-4.624L.545 6.97h0l-.002-.001a.918.918 0 01-.324-.246.574.574 0 01-.118-.366.53.53 0 01.117-.347c.076-.095.186-.175.328-.252 1.702-.913 3.407-1.827 5.113-2.74h0c1.707-.913 3.413-1.827 5.115-2.74h.002c.122-.069.231-.124.352-.178h.275c3.53 1.896 7.058 3.777 10.601 5.658.141.077.255.16.33.26a.523.523 0 01.1.375zM2.18 6.272l-.117.079.113.085a.748.748 0 00.13.082L4.57 7.73a1661.14 1661.14 0 006.489 3.463h0l.002.001a.493.493 0 00.225.042.514.514 0 00.233-.058l8.373-4.471h0l.004-.003c.146-.087.29-.173.46-.259l.164-.081-.157-.094a.37.37 0 01-.064-.048c-.011-.01-.032-.03-.057-.042-1.461-.782-2.919-1.564-4.376-2.346h0L11.488 1.49h0l-.002-.001a.452.452 0 00-.25-.052.687.687 0 00-.216.064h0l-.007.004A977.975 977.975 0 014.835 4.84c-.813.436-1.627.873-2.44 1.311-.06.03-.122.061-.215.122z" fill="#595959" stroke="#fff" stroke-width=".2"/><path d="M2.162 11.922l-.169.085.164.092.096.054c.186.105.342.193.508.27 1.372.737 2.745 1.471 4.118 2.205h0c1.374.734 2.747 1.469 4.12 2.206h0l.003.002a.617.617 0 00.279.076.617.617 0 00.278-.076h0l.003-.002a1592.85 1592.85 0 018.578-4.588h0l.004-.002c.073-.044.145-.087.247-.145l.158-.09-.161-.086c-.555-.292-1.066-.569-1.578-.847h0l-.002-.001a6.98 6.98 0 01-.33-.172.666.666 0 01-.297-.368.58.58 0 01.056-.448.586.586 0 01.828-.238h0l.003.001c.408.212.813.43 1.218.65h0c.406.219.812.438 1.222.65l.001.001c.085.043.167.09.251.137h.001c.084.047.17.096.259.14a.89.89 0 01.303.243c.069.094.11.208.11.356 0 .281-.165.445-.415.584h-.001l-1.401.745-1.403.745h0l-7.453 3.99h0a1 1 0 01-.49.136 1.063 1.063 0 01-.483-.137 2266.543 2266.543 0 00-7.557-4.047L.607 12.642a.6.6 0 00-.07-.04H.534a.494.494 0 01-.055-.03h0l-.004-.003c-.245-.146-.357-.356-.357-.555 0-.199.112-.405.354-.543a181.37 181.37 0 012.254-1.216l.784-.42h0c.332-.179.667-.065.83.224h0l.001.001a.57.57 0 01.062.46.67.67 0 01-.33.382h-.001a49.78 49.78 0 01-1.502.802 3.955 3.955 0 00-.166.089 5.61 5.61 0 01-.242.13z" fill="#595959" stroke="#fff" stroke-width=".2"/><path d="M2.172 17.58l-.158.09.16.085.766.41c.217.117.431.233.652.35 0 0 0 0 0 0l7.364 3.946h.003a.75.75 0 00.32.094c.11.002.216-.03.329-.095 1.567-.85 3.14-1.69 4.713-2.53 1.243-.664 2.487-1.329 3.732-2h.002c.102-.06.204-.117.335-.19l.143-.08-.136-.09-.04-.028c-.064-.043-.123-.083-.192-.112-.496-.262-.99-.524-1.47-.786h-.002c-.203-.11-.334-.25-.392-.398a.548.548 0 01.039-.475.565.565 0 01.376-.303c.157-.035.351-.006.57.11l1.366.73h0c.457.245.914.49 1.367.731h0c.262.138.429.316.429.599 0 .296-.18.474-.444.613h0c-3.375 1.797-6.75 3.61-10.126 5.42h0v.002c-.057.028-.12.06-.185.107a.728.728 0 01-.396.12.834.834 0 01-.405-.124h0-.001a396.939 396.939 0 00-3.167-1.706c-.368-.197-.735-.393-1.1-.59a783.732 783.732 0 00-4.472-2.39l-1.55-.824h0c-.267-.141-.458-.32-.458-.614 0-.296.18-.474.443-.613h.001l1.388-.745h0l1.389-.745h0v-.001c.234-.13.468-.127.68.036h.001a.586.586 0 01.208.262.611.611 0 01.017.34v.002c-.037.212-.158.348-.353.439h0l-.005.002c-.248.131-.493.263-.738.395h0l-.737.394h0l-.01.005a3.38 3.38 0 01-.256.157z" fill="#595959" stroke="#fff" stroke-width=".2"/></svg>